<?xml version="1.0" standalone="no"?>
<!DOCTYPE svg PUBLIC "-//W3C//DTD SVG 1.1//EN" "http://www.w3.org/Graphics/SVG/1.1/DTD/svg11.dtd" >
<svg xmlns="http://www.w3.org/2000/svg" xmlns:xlink="http://www.w3.org/1999/xlink" version="1.1">
<metadata>
Created by FontForge 20170731 at Wed Feb  9 13:32:12 2022
 By Aleksey,,,
Copyright (c) 2018, Aaron Amar
http://be.net/aaronamar
</metadata>
<defs>
<font id="Cubao_Free_Narrow" horiz-adv-x="864" >
  <font-face 
    font-family="Cubao Free Narrow"
    font-weight="400"
    font-stretch="condensed"
    units-per-em="2048"
    panose-1="2 0 5 6 0 0 0 0 0 0"
    ascent="1638"
    descent="-410"
    x-height="1288"
    cap-height="1288"
    bbox="38.6667 -244.63 1027.2 1289"
    underline-thickness="102"
    underline-position="-307"
    unicode-range="U+0020-20B1"
  />
<missing-glyph horiz-adv-x="1024" 
d="M102 0v1092h820v-1092h-820zM205 102h614v887h-614v-887z" />
    <glyph glyph-name=".notdef" horiz-adv-x="1024" 
d="M102 0v1092h820v-1092h-820zM205 102h614v887h-614v-887z" />
    <glyph glyph-name=".null" horiz-adv-x="0" 
 />
    <glyph glyph-name="nonmarkingreturn" horiz-adv-x="682" 
 />
    <glyph glyph-name="space" unicode=" " horiz-adv-x="286" 
 />
    <glyph glyph-name="exclam" unicode="!" horiz-adv-x="577" 
d="M406 385q6 1 10 -3.5t4 -10.5q1 -65 6 -186t6 -172q0 -6 -4.5 -10.5t-10.5 -4.5h-336q-14 0 -14 15q-1 80 0 156q1 52 1 147v44q0 15 14 15q39 1 86 1t66.5 0.5t62 2.5t109.5 6zM68 1286h449q7 0 11.5 -4.5t3.5 -11.5q-15 -108 -57.5 -364t-59.5 -403q-1 -11 -16 -13
q-22 -2 -47.5 -4t-33.5 -2.5t-22.5 -1.5t-17 -1t-14.5 -0.5t-17 0t-22 0t-33 -0.5h-45.5t-64.5 -1q-14 0 -14 14q0 3 -0.5 8.5t-0.5 8.5q-14 246 -14 659v103q0 14 15 14z" />
    <glyph glyph-name="quotedbl" unicode="&#x22;" horiz-adv-x="819" 
d="M57 1288h301q10 0 8 -13q-9 -92 -17.5 -192.5t-17.5 -223.5t-15 -193q0 -10 -9 -10q-43 -7 -90.5 -1t-116.5 5q-8 0 -8 11q0 3 -0.5 7t-0.5 7q-3 77 -22.5 246t-19.5 266v80q0 11 8 11zM459 1288h301q10 0 8 -13q-9 -92 -17.5 -192.5t-17.5 -223.5t-15 -193q0 -10 -9 -10
q-34 -7 -92.5 -4.5t-118.5 1.5q-8 0 -8 11q0 2 -0.5 6t-0.5 7q-3 75 -20.5 248.5t-17.5 271.5v80q0 11 8 11z" />
    <glyph glyph-name="numbersign" unicode="#" horiz-adv-x="854" 
d="M746 779q-8 0 -11 -4t-4 -16q-5 -56 -5 -161q0 -13 5 -25t12 -12q11 0 19 -2t27 0q11 0 11 -12v-228q0 -11 -10 -11q-54 1 -57.5 -3t1.5 -51q1 -9 0.5 -34.5t-0.5 -34.5q0 -21 -0.5 -62t-0.5 -62v-50q0 -11 -10 -11h-219q-10 0 -10 11q0 49 -1 131.5t-1 129.5
q0 25 -4.5 31.5t-14.5 6.5q-17 0 -27.5 1.5t-27.5 1.5q-9 0 -21.5 -8t-12.5 -19q1 -44 0.5 -140t1.5 -134q0 -12 -10 -12h-243q-10 0 -10 12l1 255q-1 23 -6.5 31.5t-13.5 6.5q-6 -2 -13 -2.5t-16.5 0.5t-14.5 1q-11 0 -11 12v227q0 12 10 12q7 0 17 1t15.5 0.5t10.5 -2.5
q17 -8 20 19q0 5 -1 47q-1 19 0 45t1 41q0 11 0.5 22.5t0.5 16.5t-0.5 10.5t-3 7.5t-7.5 3t-14 0q-28 -1 -38 -1q-11 0 -11 12v199q0 11 10 11q6 0 10.5 -0.5t6 -0.5h3.5h2.5t2.5 0.5t3.5 1.5t6 2t10.5 3q12 3 16 27q9 63 9 128t-3 128q0 12 10 12h219q10 0 10 -12
q0 -18 1.5 -91t-1.5 -107q-2 -37 1 -50t19 -15h80q8 0 15 8t7 20q-1 41 1 119t0 116q0 12 10 12h215q10 0 10 -12q0 -34 -2.5 -104t-1.5 -117q1 -34 23 -39q11 -2 17 -4t6.5 -2.5t6.5 -1t17 0.5q10 0 10 -12v-203q0 -12 -10 -12q-16 1 -22 -1t-21 -2zM520 596q6 85 -1 149
q-1 15 -12.5 22.5t-24.5 7t-25 -0.5q-10 -1 -23 -1t-18 0.5t-9 -0.5q-10 -1 -18 -12t-7 -26q2 -21 2 -61.5t1 -61.5q0 -5 0.5 -14t1 -13t1.5 -9.5t3 -8t6 -5t10 -3.5q62 -7 96 -3q10 1 13 10.5t4 29.5z" />
    <glyph glyph-name="dollar" unicode="$" horiz-adv-x="854" 
d="M800 975q1 -15 0 -71.5t-1 -60.5q0 -14 -9 -14q-280 16 -307 15q-48 -2 -72.5 -10.5t-24.5 -34.5q0 -39 30 -44q20 -5 87.5 0.5t89.5 2.5q111 -16 158 -105q47 -87 39 -245q-9 -125 -59 -182q-58 -67 -92 -71q-12 -1 -12 -12v-140q0 -5 -2 -5h-403q-3 0 -3 5v146
q0 5 -2 5h-157q-9 0 -9 13q-1 14 0.5 39t1.5 35q-1 65 1 188q0 6 3 10t7 3q13 -1 43 -2t33 -1q30 -5 140.5 -1.5t137.5 13.5q29 11 24 41q-6 34 -81 26q-11 -1 -49 -1.5t-45 -0.5q-31 -1 -74 8.5t-68 33.5q-41 38 -62 119q-35 136 13 290q26 88 77 125q7 5 16.5 12.5
t13.5 10.5t9.5 7t9 5.5l7 3t7.5 1.5t4 6v3v8.5t0.5 13t0.5 19v24.5l-1 77q0 3 2 3h404q2 0 2 -3q-2 -29 0 -69v-79q0 -3 1 -3h163q6 0 6 -5q2 -33 1.5 -75.5t0.5 -76.5z" />
    <glyph glyph-name="percent" unicode="%" horiz-adv-x="843" 
d="M673 465q28 0 49 -11t34 -35t21 -49t11.5 -65.5t4.5 -72t1 -81.5q0 -41 -12 -71t-28.5 -45t-43 -23.5t-45 -10t-44.5 -1.5q-78 0 -110.5 62.5t-32.5 191.5q0 49 7 86t22.5 59.5t31.5 36.5t41.5 20t44 7.5t48.5 1.5zM170 1286q90 0 128.5 -34.5t38.5 -117.5
q0 -53 -1 -80.5t-4.5 -65.5t-12 -57t-23 -38.5t-37.5 -27t-55 -7.5q-87 0 -124 42t-37 133q0 63 2 98t8.5 69.5t20.5 50.5t37 25.5t59 9.5zM501 476q-15 -45 -79.5 -222.5t-85.5 -250.5l-2 -3h-283q-2 0 -3 5t1 9q10 23 20 50.5t21.5 62t18.5 52.5q16 43 125.5 381
t121.5 373q45 129 132 353l2 2h302q2 0 3 -5t-1 -9q-20 -48 -138 -366.5t-155 -431.5z" />
    <glyph glyph-name="ampersand" unicode="&#x26;" horiz-adv-x="854" 
d="M801 380zM800 500v-66.5v-123v-85.5q0 -4 -4 -4h-187q-4 0 -4 -7l-2 -101l2 -106q0 -7 -4 -7h-365q-4 0 -4 7q4 41 4 123q0 76 1 81q1 4 -2 7t-7 3q-28 2 -70 13.5t-59 28.5q-50 49 -50 136v79q0 33 13 66t24.5 48.5t31.5 40.5q8 9 6.5 22t-11.5 19q-14 8 -39 49t-25 83
v56q0 59 39 128q21 36 62 62q12 7 32.5 16.5t35 16t14.5 7.5q4 33 4 101l-4 89q0 6 4 6h366q4 0 4 -6q-3 -49 -3 -93l3 -97q0 -6 3 -6h180q4 0 4 -5q-1 -16 -1 -38.5v-45.5t0.5 -47t1 -45.5t0.5 -38.5v-28l1 -10q0 -4 -4 -4q-60 6 -159 5q-95 -2 -153 -18
q-20 -6 -26.5 -28.5t0.5 -34.5q4 -8 10 -11.5t18 -4.5t15 -2q20 -5 87.5 -8t100.5 -1q20 1 35.5 -16.5t16.5 -55.5q0 -15 -2.5 -25.5t-5 -16.5t-9.5 -9.5t-10 -4.5t-13.5 -3t-12.5 -2q-7 0 -47 -1t-86 -2t-60 -1q-37 -1 -35 -43q1 -17 11.5 -28t25.5 -13q88 -9 142 -8
q36 1 162 12q4 0 4 -4zM801 380z" />
    <glyph glyph-name="quotesingle" unicode="'" horiz-adv-x="419" 
d="M59 1288h301q10 0 8 -13q-9 -92 -17.5 -192.5t-17.5 -223.5t-15 -193q0 -10 -9 -10q-34 -7 -92.5 -4.5t-118.5 1.5q-8 0 -8 11q0 2 -0.5 6t-0.5 7q-3 75 -20.5 248.5t-17.5 271.5v80q0 11 8 11z" />
    <glyph glyph-name="parenleft" unicode="(" horiz-adv-x="430" 
d="M328 285q7 -50 29 -149.5t28 -120.5q4 -15 -6 -15h-166q0 1 -2 3q-118 209 -152 468q-35 280 34 565q27 111 77 247q2 5 6 5h196q8 0 6 -13q-63 -307 -69 -357q-10 -96 -13 -167q-3 -88 8 -236q11 -139 24 -230z" />
    <glyph glyph-name="parenright" unicode=")" horiz-adv-x="440" 
d="M86 157q10 33 30.5 146.5t25.5 156.5q19 168 2 319q-12 115 -52 278q-49 209 -51 217q-2 14 6 14h200q4 0 6 -7q13 -48 44 -129.5t42 -117.5q45 -147 49 -295q4 -132 -12 -283q-28 -264 -112 -452q-1 -4 -5 -4h-209q-10 0 -6 14q8 28 23.5 81t18.5 62z" />
    <glyph glyph-name="asterisk" unicode="*" horiz-adv-x="862" 
d="M804 452q0 -331 1 -408q0 -12 -6 -13q-2 0 -3 1q-4 4 -53.5 62.5t-97 107.5t-71.5 60q-7 4 -13 -3.5t-8 -23.5q-1 -10 -1.5 -45.5t0 -71.5t1 -70t0.5 -36q0 -13 -7 -13h-254q-7 0 -7 14q0 2 1.5 33t2.5 65.5t0.5 73t-2.5 57.5q-1 11 -8 16.5t-13 1.5q-38 -25 -106.5 -103
t-97.5 -102q-5 -4 -8 6q-1 3 -1 6l4 375q0 10 3 13q4 4 52 43.5t93 80t53 54.5q6 10 4.5 27t-10.5 24q-31 26 -99 92t-96 90q-4 4 -4 12l1 324q0 7 2.5 11t5.5 2q12 -6 61.5 -58t97.5 -98t64 -44q6 1 9.5 9t4.5 22t1 26.5t-1 27.5t-1 20q2 76 -3 153q0 14 6 14h245
q6 0 6 -13q-3 -185 0 -216q1 -12 8 -21t14 -7q12 3 32 16t39.5 28.5t46 38.5t42.5 37.5t37 34.5t22 21q5 5 8 -4q1 -3 1 -7q2 -86 2 -315q0 -8 -3 -11q-4 -4 -28 -32.5t-30.5 -36t-26.5 -29.5t-31.5 -32t-28.5 -24t-32 -24q-11 -7 -12.5 -25t8.5 -31q33 -41 100 -100t80 -72
q4 -4 4 -11z" />
    <glyph glyph-name="plus" unicode="+" horiz-adv-x="856" 
d="M616 884q9 -4 47 -7t85 -5.5t51 -2.5q5 0 5 -11v-449q0 -11 -6 -11l-169 4q-16 -1 -26 -22.5t-12 -55.5q-2 -37 -1.5 -153t3.5 -159q0 -12 -6 -12h-324q-5 0 -5 10q-1 10 -1.5 106.5t-2.5 185t-7 99.5q-5 12 -12.5 17t-15 4.5t-15.5 -0.5q-8 -1 -103 -1q-31 0 -46 -2
q-6 0 -6 11v442q0 10 6 10q30 -3 87.5 0t85.5 -1q8 -1 13.5 10.5t5.5 27.5q0 63 2.5 189.5t2.5 169.5q0 10 5 10h330q5 0 5 -10q1 -45 0.5 -167.5t-1.5 -158.5q-3 -56 25 -68z" />
    <glyph glyph-name="comma" unicode="," horiz-adv-x="471" 
d="M66 391v-1h341q12 0 10 -12q-12 -96 -53 -298.5t-53 -311.5q-1 -9 -11 -9q-57 -7 -95.5 -0.5t-128.5 4.5q-10 0 -10 10q0 3 -0.5 7t-0.5 7q-10 198 -10 512v80q0 12 11 12z" />
    <glyph glyph-name="hyphen" unicode="-" horiz-adv-x="669" 
d="M608 770q0 -32 0.5 -87t0.5 -86q0 -35 0.5 -107t0.5 -107q0 -8 -4 -8q-3 0 -421 9q-80 2 -120 2q-4 0 -4 8q-6 160 -6 382q0 8 4 8l462 -6h84q3 0 3 -8z" />
    <glyph glyph-name="period" unicode="." horiz-adv-x="466" 
d="M388 386q11 0 11 -14q1 -69 5 -198t5 -159q0 -15 -12 -15h-329q-12 0 -12 14q0 5 -0.5 79.5t0.5 77.5q1 52 1 147q0 8 -0.5 22t-0.5 22q0 14 12 14q61 2 119 7.5t82.5 6.5t118.5 -4z" />
    <glyph glyph-name="slash" unicode="/" horiz-adv-x="833" 
d="M546 476q-13 -43 -71 -221t-77 -252l-2 -3h-354q-2 0 -3 5t1 9l54 165q14 44 112.5 382t109.5 372q47 152 118 353l2 2h352q2 0 2.5 -5t-0.5 -9q-14 -35 -106.5 -340.5t-137.5 -457.5z" />
    <glyph glyph-name="zero" unicode="0" horiz-adv-x="862" 
d="M804 891q0 -52 0.5 -217.5t0.5 -218.5q0 -79 -9 -127.5t-33 -105.5q-39 -91 -113 -149q-35 -27 -53 -39t-52 -22t-78 -10h-108q-61 5 -119 40.5t-96 84.5q-31 40 -60.5 122t-29.5 138q0 34 -0.5 240t-0.5 271q0 166 72 262q48 65 92 90t114 37h25t59.5 -0.5t78.5 -0.5
q130 0 210 -99q44 -55 72 -136.5t28 -159.5zM345 522q0 -73 19.5 -102t54.5 -29q25 0 40.5 19t19 38t3.5 40q0 33 2.5 148t0.5 158q-3 57 -15.5 84.5t-50.5 27.5q-75 0 -75 -105q0 -12 0.5 -115t0.5 -164z" />
    <glyph glyph-name="one" unicode="1" horiz-adv-x="632" 
d="M564 1288q8 0 8 -11q-4 -154 -5 -231q-2 -108 1.5 -313.5t2.5 -332.5q-1 -97 3 -390q0 -10 -8 -10h-365q-8 0 -8 11q2 31 4.5 111.5t3.5 102.5q3 50 4.5 137.5t1.5 164.5v86q0 105 -11 114q-23 21 -138 -4q-4 -1 -6.5 2t-2.5 8v388q0 5 3 8q14 15 72 62.5t88 92.5
q2 4 5 4h347z" />
    <glyph glyph-name="two" unicode="2" horiz-adv-x="862" 
d="M548 425q-36 -8 -57 -11t-30.5 -3t-33 1.5t-51.5 0.5q-16 0 -24 -17t-1.5 -34t24.5 -19q97 -10 414 11q11 0 11 -17v-91l5 -229q0 -17 -11 -17h-730q-11 0 -11 17q3 65 4 97q4 116 2 348q0 140 3 165q0 1 0.5 3.5t0.5 4t0.5 3.5t2 3.5t3.5 3t5 3t7 2.5q87 27 176 41
t141 12q36 -1 55 23t7 49q-11 23 -51 40q-71 26 -167 21q-23 -1 -62 -7t-73 -11.5t-40 -6.5q-4 -1 -7.5 4t-3.5 13q-2 220 -1 331q0 38 2 112q0 17 10 17h408h1q9 -1 50 -3t61 -5t54 -15.5t62 -33.5q35 -26 68.5 -101.5t33.5 -182.5v-135v-2q-8 -166 -69 -261t-188 -124z
" />
    <glyph glyph-name="three" unicode="3" horiz-adv-x="866" 
d="M814 443q0 -5 -0.5 -24.5t-0.5 -38v-47.5q1 -83 -28 -162.5t-78 -119.5q-20 -17 -58 -33.5t-83 -16.5h-500q-3 0 -3 6q1 38 0.5 83.5t-1 98t-1 94t-1.5 71.5v30q0 6 4 6q32 -9 153 -6q151 4 193 23q45 21 45 67q0 17 -10 34t-32 23q-34 9 -139 -2q-110 -10 -212 -10
q-4 0 -4 11q-2 128 -2 208q0 6 3 6q4 0 76.5 4l145 8t83.5 5q86 10 86 72q0 20 -5.5 34t-16.5 20t-16 8t-16 4q-49 5 -180 1t-157 -7q-3 0 -3 6q0 23 -0.5 61t-0.5 61q0 173 1 260q0 7 3 7h489q37 0 57.5 -1t51.5 -9.5t56 -25.5q68 -46 86 -145q18 -106 6 -201
q-6 -46 -17 -79t-21 -47.5t-23 -32t-20 -31.5q-10 -21 9 -41q81 -91 81 -232z" />
    <glyph glyph-name="four" unicode="4" horiz-adv-x="849" 
d="M788 1278q-10 -191 -3.5 -721t5.5 -549q0 -8 -8 -8h-317q-8 0 -8 9q0 6 3.5 64t6 111.5t1.5 68.5q-7 70 -55 77q-22 3 -97 5t-168 3t-95 1q-8 0 -8 9v0v0v1v0v1v1v1v1v1v1v1v1v1v1v1v1v1v1v1v1v2v1v1v1v2v1v1v2v1v2v1v2v1v2v1v2v2v1v2v2v2v2v1v2v2v2v2v2v2v2v3v2v2v2v2v3
v2v3v2v3v2v3v3v3v3v3v3v3v4v4v4v4v5v9v1q9 97 41.5 367.5t41.5 419.5q0 9 8 9h274q10 0 8 -12q-9 -47 -32.5 -222.5t-22.5 -200.5q1 -30 3 -43t11 -27t27 -19q27 -8 49.5 6.5t29.5 45.5q3 15 15.5 217.5t11.5 244.5q0 10 7 10h263q8 0 8 -10z" />
    <glyph glyph-name="five" unicode="5" 
d="M559 787q156 -3 208 -116q19 -40 28.5 -106t10 -96t0.5 -97q0 -103 -17.5 -175t-65.5 -119q-46 -45 -86.5 -61.5t-95.5 -16.5h-474q-4 0 -4 5q0 34 -2 100q-2 106 2 307q0 5 4 5q33 1 97 -1.5t112 -5.5l47 -3q122 -10 148 11q37 30 19 71q-11 23 -48 32q-41 9 -374 9
q-4 0 -4 5q0 8 -4.5 324t-3.5 424q0 5 4 5h738q5 0 5 -5q1 -49 -2 -206.5t-3 -173.5q0 -5 -4 -5q-258 -8 -363 -8q-22 0 -39 -12.5t-18 -40.5q-1 -27 17 -37.5t73 -9.5q14 0 30 -0.5t35 -1.5t30 -1z" />
    <glyph glyph-name="six" unicode="6" horiz-adv-x="862" 
d="M797 557q5 -39 6 -80v-122q0 -69 -28 -161q-24 -81 -88 -131q-81 -63 -186 -63h-128q-76 0 -125.5 30t-107.5 91q-43 44 -65 139t-22 181v398q0 116 22.5 198t90.5 155q89 96 251 96h373q13 0 13 -16q2 -241 0 -361q0 -16 -12 -16q-68 0 -140 2.5t-119 4.5t-54 2
q-68 0 -85 -22q-17 -24 -7 -60q7 -24 56 -21q184 14 272 -67q67 -62 83 -177zM383 322q0 -40 10.5 -60.5t38.5 -21.5q26 -1 36 23.5t10 59.5q0 16 -0.5 89t-0.5 100q0 22 -11 47t-35 25q-25 0 -36 -24t-10 -49q1 -16 -0.5 -92.5t-1.5 -96.5z" />
    <glyph glyph-name="seven" unicode="7" horiz-adv-x="858" 
d="M799 1085q0 -32 2 -174.5t2 -160.5q0 -4 -0.5 -6.5t-0.5 -3.5l-1 -2q-12 -32 -27.5 -65.5t-35.5 -74.5t-30 -62q-24 -51 -115.5 -275t-102.5 -255q-2 -6 -6 -6h-417q-6 0 -4 8q48 168 165 387q1 3 38.5 70t69 126.5t39.5 81.5q14 38 4 57q-4 8 -85 8.5t-154 -2.5t-84 -4
q-5 0 -5 6q0 19 1 263t1 281q0 6 4 6h740q3 -2 3 -6v-15.5v-37t-0.5 -47.5t-0.5 -52v-45z" />
    <glyph glyph-name="eight" unicode="8" horiz-adv-x="856" 
d="M701 698q50 -48 76 -110t26 -181v-57v-51.5t-0.5 -39t-2.5 -38.5t-5 -30.5t-8 -33.5q-13 -42 -48 -87q-11 -14 -18.5 -22t-25 -21.5t-42 -20t-55.5 -6.5h-380q-34 0 -71.5 25t-61.5 68q-33 62 -33 202q0 17 -0.5 72.5t-0.5 79.5q0 89 37.5 155.5t75.5 88.5
q15 10 14.5 30.5t-15.5 28.5q-14 8 -49 49t-41 56q-28 69 -17 204q3 38 17.5 87.5t40.5 80.5q51 61 112 61h385q48 0 71.5 -12.5t58.5 -57.5q26 -33 39 -88t14 -89q10 -224 -98 -293q-11 -6 -11 -20q0 -7 2 -12t3 -6.5t5.5 -6zM371 876q0 -98 50 -98q49 0 54 83q3 87 3 131
q0 28 -13 59.5t-37 31.5q-25 0 -40.5 -27t-16.5 -56v-124zM478 447q-4 45 -14.5 65t-39.5 20q-15 0 -26 -10.5t-15.5 -27t-6.5 -29t-3 -23.5q-1 -16 0 -89t1 -75q0 -23 13 -49t38 -26q26 0 39.5 20.5t13.5 46.5v177z" />
    <glyph glyph-name="nine" unicode="9" 
d="M727 1191q24 -29 37 -50.5t27 -75.5t14 -125v-576q0 -164 -90 -282q-9 -11 -28 -27.5t-60.5 -35.5t-82.5 -19h-482q-8 0 -8 13q0 51 0.5 160.5t0.5 160.5q0 12 8 12q72 1 222 -4q29 -1 155 10q50 5 50 58q0 19 -11 30t-22 14t-28 5q-7 1 -52.5 -1t-96 3.5t-90.5 25.5
q-41 21 -88.5 92t-47.5 148v62.5v78v54.5q1 94 25 163q29 82 67 127q66 76 148 76h216q34 0 55 -2t51 -11t57 -29.5t54 -54.5zM492 824q0 94 -10.5 128t-51.5 34q-19 0 -31 -5.5t-19 -13t-10 -28t-3.5 -36.5t-0.5 -53v-13q0 -34 0.5 -51.5t2 -42t5.5 -36t11 -24t18 -17.5
t26 -5t26 4.5t18 16t11 23t5.5 33.5t2 38.5t0.5 47.5z" />
    <glyph glyph-name="colon" unicode=":" horiz-adv-x="464" 
d="M390 386q11 0 11 -14q1 -69 5 -198t5 -159q0 -15 -12 -15h-329q-12 0 -12 14q0 5 -0.5 79.5t0.5 77.5q1 52 1 147q0 8 -0.5 22t-0.5 22q0 14 12 14q61 2 119 7.5t82.5 6.5t118.5 -4zM382 1007q11 0 11 -14q1 -166 6 -349q0 -7 -3 -11.5t-9 -3.5q-60 6 -93.5 7.5t-50.5 0
t-63.5 -3.5t-109.5 -3q-12 0 -12 14v156q1 52 1 148q0 8 -0.5 22t-0.5 21q0 15 12 15q47 1 92 3.5t65.5 3t58.5 -0.5t96 -5z" />
    <glyph glyph-name="semicolon" unicode=";" horiz-adv-x="479" 
d="M64 391v-1h341q12 0 10 -12q-12 -96 -53 -298.5t-53 -311.5q-1 -9 -11 -9q-57 -7 -95.5 -0.5t-128.5 4.5q-11 0 -11 10v14q-10 198 -10 512v80q0 12 11 12zM407 1007q11 0 11 -14q1 -166 6 -349q0 -15 -12 -15q-60 0 -155 1.5t-181 -0.5q-12 0 -12 14v156q1 52 1 148
q0 8 -0.5 22t-0.5 21q0 15 12 15q46 1 95 3.5t72.5 3t65 -0.5t98.5 -5z" />
    <glyph glyph-name="less" unicode="&#x3c;" horiz-adv-x="530" 
d="M310 504q19 -75 170 -490q4 -10 3 -12t-7 -2h-169q-1 0 -1 1q-115 208 -185 411q-41 122 -50 142q-30 73 -30 106q0 39 28 92q9 16 59 138q124 305 168 397q0 1 2 1h188q1 0 1 -3q-7 -40 -36 -109.5t-35 -90.5q-130 -406 -130 -435q0 -54 24 -146z" />
    <glyph glyph-name="equal" unicode="=" horiz-adv-x="874" 
d="M803 582q0 -32 0.5 -86t0.5 -86q1 -71 1 -214q0 -8 -5 -8q-3 0 -568 9q-108 2 -162 2q-4 0 -4 8q-9 199 -9 381q0 8 5 8q206 -1 623 -5q19 0 56.5 -0.5t56.5 -0.5q5 0 5 -8zM302 719q-27 0 -75.5 1t-88 1.5t-75.5 0.5q-5 0 -5 8q0 58 1 181.5t2 180.5q0 8 5 8h744
q4 0 4 -8q-3 -166 -8 -354q0 -7 -4 -7q-1 0 -109 -3q-260 -10 -391 -9z" />
    <glyph glyph-name="greater" unicode="&#x3e;" horiz-adv-x="542" 
d="M312 1156q185 -388 186 -450q0 -23 -5 -43t-15.5 -45.5t-14.5 -40.5q-26 -85 -50 -185q-11 -46 -54.5 -185.5t-63.5 -195.5q-4 -11 -8 -11h-200q-4 0 -2 4q9 28 72.5 252t72.5 259q16 65 16 142q0 18 -13 63.5t-27 80.5q-31 76 -93 254t-74 229q0 4 2 4h207q2 0 2 -1
q12 -24 33.5 -70t28.5 -61z" />
    <glyph glyph-name="question" unicode="?" horiz-adv-x="851" 
d="M510 1286q59 0 125 -29t102 -81q54 -79 61 -232v-173v-1q-2 -53 -13 -97q-29 -111 -135 -179q-94 -61 -241 -74q-24 -5 -164.5 -1.5t-172.5 2.5q-4 0 -4 5v2q1 45 -4 270q0 5 4 5q21 1 114.5 2.5t160.5 5.5t97 12q21 5 33 29t4 51q-15 50 -82 48q-88 -5 -328 -13
q-4 0 -4 5q0 14 -4 149t-6 166q-5 62 -3 123q0 5 3 5h457zM415 327q-5 -38 -2.5 -161t9.5 -161q2 -7 -4 -7h-346q-5 0 -5 5q-1 17 -1 84.5t1 102.5v142v1q0 4 5 4q70 -5 178.5 -6.5t160.5 1.5q4 0 4 -5z" />
    <glyph glyph-name="at" unicode="@" horiz-adv-x="862" 
d="M798 225q0 -139 5 -216q0 -9 -6 -9h-408q-60 0 -123.5 42t-116.5 110q-90 115 -100 332v1v249q0 148 40 300q27 104 108.5 179t151.5 75h279h1q60 -13 103 -49q40 -34 59 -103v-2v-3q17 -107 8 -807q0 -8 -7 -8q-305 8 -364 14q-16 1 -44.5 13.5t-37.5 21.5
q-26 26 -36.5 51.5t-21.5 78.5q-17 83 -17 174q0 64 18 135t41 109q26 42 48 57.5t60 15.5h5q5 0 14.5 -0.5t22.5 -1t33.5 -0.5h43.5q3 0 8 -1.5t11 -10.5t6 -24q0 -17 3.5 -169.5t3.5 -211.5q0 -31 25 -42q25 -10 38 15q8 15 8 38q-1 53 0 171.5t1.5 180t-2.5 95.5
q-16 57 -87 52q-6 -2 -49 -1t-49 1q-14 0 -38 1t-35.5 1t-30.5 -3t-31.5 -11.5t-29 -24.5t-32.5 -40q-67 -102 -81 -247q-3 -26 -3.5 -53t0.5 -65t1 -53q0 -53 13 -125.5t43 -116.5q16 -23 33.5 -40.5t31 -27t29.5 -15.5t24 -7.5t19.5 -3t12.5 -1.5q60 -11 171 -11h221
q6 0 6 -9zM466 665q1 24 0.5 43t-2.5 33t-7.5 22t-14.5 9q-19 1 -25.5 -21t-7.5 -82q0 -91 11 -112q7 -13 19 -13q18 1 23 22q2 13 4 99z" />
    <glyph glyph-name="A" unicode="A" horiz-adv-x="999" 
d="M949 0h-513q-7 0 -7 10q1 49 32 345q1 3 7.5 5.5t10.5 1.5q8 -2 46.5 -2.5t48.5 0.5q2 0 9.5 3.5t16 13t7.5 20.5q-1 6 -13 90.5t-24 174t-13 123.5q-5 105 -43 106q-43 2 -54 -74q-5 -40 -65.5 -381t-62.5 -427q0 -9 -6 -9h-278q-9 0 -7 12q1 6 3 17.5t3 17.5
q20 116 97 472q15 71 67 397t56 364q0 8 7 8h455q4 0 6 -7q5 -28 40 -234t45 -263q15 -80 53 -328q60 -357 82 -443q2 -5 0 -9t-6 -4z" />
    <glyph glyph-name="B" unicode="B" horiz-adv-x="868" 
d="M814 395v-99q0 -44 -17 -91.5t-43 -78.5q-14 -17 -32.5 -32.5t-30.5 -23.5t-29.5 -18t-19.5 -12q-63 -40 -182 -40h-393q-7 0 -11 5t-3 11q9 60 13.5 265t0.5 290q-4 77 -7.5 269t-2.5 238q2 114 2 195q0 15 14 15h490q80 0 144 -45q91 -65 91 -240q0 -51 -1.5 -80
t-12 -65.5t-30.5 -62.5q-12 -16 -24.5 -27t-19 -15t-23 -12t-22.5 -11q-51 -26 -10 -48q72 -38 101 -75q34 -43 46 -92t12 -120zM448 265q8 13 12 31t4 31t-1 36t-1 32v17.5t-0.5 19t-1.5 18t-2 19.5t-4 17t-6.5 17.5t-8.5 14t-12 12.5q-12 10 -26 7q-10 0 -13.5 -5.5
t-3.5 -20.5q1 -20 -2 -88t-2 -117.5t9 -56.5q31 -26 59 16zM426 757q22 10 32.5 38.5t11.5 49t0 55.5v23.5t-0.5 25t-2 21.5t-4 23.5t-7.5 20t-12 21.5q-17 22 -38 10q-16 -9 -14 -27q0 -45 -6 -244q-1 -13 13.5 -18t26.5 1z" />
    <glyph glyph-name="C" unicode="C" horiz-adv-x="874" 
d="M801 507q0 -11 -1.5 -68.5t-2.5 -101.5t0 -101.5t5 -92.5v-124q0 -19 -19 -19v0h1v0h1h1h1h1h1h1h1h1h1h1h1h1h1h1h1h1h1h1h1h1h1h1h1h1h1h1h1h1h1h1h1h1h1h1h1h1h1h1h1v0h1h1v0h1v0h1v0h1v0h1v0v0h1v0v0v0h1v0v0v0v0v0v0v0v0v0v0v0h-1v0v0v0h-1v0v0h-1v0v0h-1v0h-1v0h-1
v0h-1v0h-1v0h-1v0h-1v0h-1v0h-1h-1v0h-1h-1h-1v0h-1h-1h-1h-1h-1h-1h-1h-1h-1h-1h-1h-1h-1h-1h-1h-1h-1h-1h-1h-1h-1h-1h-1h-1h-1h-1h-1h-1h-1h-1h-1h-1h-1h-1h-1h-1h-1h-1h-1h-1h-1h-1h-1h-1h-1h-1h-1h-1h-1h-1h-1h-1h-1h-1h-1h-1h-1h-1h-1h-1h-1h-1h-1h-1h-1h-1h-1h-1h-1
h-1h-1h-1h-1h-1h-1h-1h-1h-1h-1h-1h-1h-1h-1h-1h-1h-1h-1h-1h-1h-1h-1h-1h-1h-1h-1h-1h-1h-1h-1h-1h-1h-1h-1h-1h-1h-1h-1h-1h-1h-1h-1h-1h-1h-1h-1h-1h-1h-1h-1h-1h-1h-1h-1h-1h-9q-92 0 -161 8t-117 26t-66.5 27.5t-52.5 30.5q-107 67 -150 136q-50 78 -67 145t-17 144
v246v-19v-3v-2v-2v-1v-2v-1v-1v-1v-1v-1v-1v-1v-1v0v-1v0v0v0v0v0v1v0v1v0v1v0v1v1v1v1v1v1v1v1v1v1v1v1v1v1v1v1v1v1v1v1v1v1v1v1v1v1v1v1v1v9q0 132 39 247q26 77 125 172q107 103 391 103h5h6h5h6h5h6h6h6h6h6h6h6h6h7h7h7h7h8h8h8h10h12h16h-2q8 0 20.5 -11.5
t12.5 -19.5v-105q0 -6 -1 -16.5t-2 -15.5q-2 -35 -1.5 -108t2.5 -146l2 -74q0 -8 -6 -14t-13 -5q-32 2 -236 -9q-35 -2 -59.5 -16t-35.5 -35t-15 -38t-4 -33q0 -55 28 -82q40 -37 130 -44q29 -3 64 -2.5t60.5 2t46 3.5t21.5 2q13 0 18 -14z" />
    <glyph glyph-name="D" unicode="D" horiz-adv-x="860" 
d="M803 377q0 -74 -36 -153.5t-106 -131.5q-42 -32 -95 -53t-84 -26.5t-54 -7.5q-21 -1 -98 -2.5t-83 -1.5l-167 -1q-7 0 -12 6t-4 14q4 33 5 212.5t-2 258.5q-1 40 -4 113.5t-5 133.5t-3 113v354l3 66q0 7 5 12t12 5h261v0h-1h-1h-1h-1h-1h-1h-1h-2h-1h-1h-1h-2h-1h-1h-1
h-1h-1h-1h-1h-1h-1h-1h-1h-1h-1h-1h-1h-1h-1v0h-1v0h-1v0v0h-1v0v0v0v0h1v0v0v0h1v0h1v0h1v0h1v0h1v0h1h1h1h1v0h1h1h1h1h1h1h1h1h1h1h1h1h1h1h1h1h1h1h1h1h1h1h1h1h1h1h1h1h1h1h1h1h1h1h1h1h1h1h1h1h1h1h1h1h1h1h1h1h1h1h1h1h1h1h1h1h1h10q117 0 170.5 -16t134.5 -87
q40 -35 66 -81t36 -96.5t13 -86t4 -78.5v-15v-119v-213v-119zM478 523q6 32 6 105.5t-5 113.5q-14 114 -66 114q-19 0 -27 -16t-8 -63v-252q0 -25 0.5 -37t3.5 -27.5t10.5 -22t20.5 -6.5q29 0 42 19t23 72z" />
    <glyph glyph-name="E" unicode="E" horiz-adv-x="860" 
d="M794 340v-114l8 -209q0 -7 -5 -12t-12 -5h-707q-11 0 -19.5 8.5t-7.5 19.5q7 172 11 618q1 59 7 190.5t5 230.5t-14 190q-2 12 6 21.5t20 9.5h692q14 0 17 -13q1 -1 -4 -51q-2 -21 -6 -184q0 -18 2 -49.5t5 -54.5l2 -22q0 -7 -5 -12t-12 -5q-186 9 -290 -6
q-93 -14 -98 -69q-2 -22 12.5 -38t36.5 -24q11 -3 64 -4.5t106 -1t110.5 1t58.5 0.5q7 0 12 -5t5 -12v-170q0 -15 -0.5 -38t-0.5 -36q0 -16 -16 -16q-48 0 -121.5 4.5t-96.5 3.5q-5 0 -28.5 -0.5t-36 -1.5t-31.5 -5t-31.5 -12.5t-19.5 -22.5q-19 -36 4 -63t62 -36
q44 -5 77 -3.5t108.5 7t112.5 6.5q18 0 18 -16z" />
    <glyph glyph-name="F" unicode="F" horiz-adv-x="876" 
d="M814 1269v-2q0 -1 -0.5 -3t-0.5 -4q0 -36 -1.5 -109t-1.5 -109l4 -111v-70q0 -11 -11 -11q-54 0 -119 4.5t-90 5.5t-83 -5q-62 -11 -58 -85q3 -36 23.5 -53.5t65.5 -23.5q55 -7 260 6q12 2 12 -11q-3 -247 0 -260v-41q0 -11 -11 -11q-1 0 -35 -0.5t-51 -1t-49.5 -3
t-61 -7.5t-55.5 -12q-14 -4 -31 -7.5t-24.5 -5.5t-17 -7t-15 -13t-12 -22.5t-13.5 -37.5q-8 -25 -8.5 -57.5t3.5 -60t9.5 -66t6.5 -63.5q0 -12 -12 -12h-368q-12 0 -12 11q1 26 1.5 62.5t1.5 127.5t-2 100l-1 195q2 33 2 305.5t-2 322.5v153q0 11 12 11h734q11 0 11 -11v-8z
" />
    <glyph glyph-name="G" unicode="G" horiz-adv-x="866" 
d="M793 325l13 -308q0 -7 -5.5 -12t-12.5 -5h-397q-125 0 -214 84q-63 59 -92.5 152.5t-29.5 168.5l-2 459q0 215 106 316q113 108 293 108h336q7 0 12.5 -5t5.5 -12q-3 -321 -5 -475q0 -7 -5.5 -12t-13.5 -5q-24 1 -78 4.5t-96 5.5t-67 0q-5 0 -26 -0.5t-33.5 -1.5t-33 -6
t-33 -14.5t-24.5 -27t-17 -42.5q-11 -57 -6 -172q1 -14 1 -37.5t0.5 -34t4.5 -25t11.5 -21t22 -10.5t36.5 -4q76 1 70 99q-4 77 -2 160q0 30 36 29h232q8 0 13.5 -5t5.5 -12q0 -14 -0.5 -42t-0.5 -42q0 -52 -2 -127t-3 -128z" />
    <glyph glyph-name="H" unicode="H" horiz-adv-x="868" 
d="M804 1276q0 -418 1 -616q0 -55 -0.5 -140.5t-1.5 -169.5t-2 -159.5t-1.5 -125t-0.5 -51.5q0 -14 -11 -14h-286q-11 0 -11 14q0 92 -5 187q0 4 -1 30t-2 37.5t-3.5 35.5t-6.5 37t-10 28.5t-15.5 22.5t-21.5 7t-21.5 -8t-14.5 -21.5t-9 -31t-5 -36t-1.5 -37t0 -33.5
t-0.5 -26q-1 -36 1.5 -101t2.5 -90q0 -15 -11 -15h-297q-13 0 -11 16q19 232 -6 1257q0 15 11 15h299q11 0 11 -15q-2 -43 -2 -269q0 -81 16.5 -107.5t57.5 -17.5q11 3 19.5 8t13 14.5t7.5 17.5t4 24t1.5 25t0 30t-0.5 30q0 100 -8 244q0 16 11 16h299q9 0 11 -12z" />
    <glyph glyph-name="I" unicode="I" horiz-adv-x="530" 
d="M63 1288h376q10 0 17 -7t6 -17q-8 -235 -6 -510t6 -444q2 -115 15 -286q1 -10 -5.5 -17t-16.5 -7h-389q-9 0 -7 9q14 71 5 549q-9 480 -9 722z" />
    <glyph glyph-name="J" unicode="J" 
d="M720 87q-83 -87 -178 -87h-199q-68 0 -118.5 19t-101.5 72q-35 37 -52.5 88.5t-18 103.5t0 112.5t-0.5 114.5v1v119q0 7 5 7q97 0 127.5 4t131.5 3q5 0 5 -7q0 -209 7 -230q20 -55 59 -55q25 0 40 22t20.5 78t6.5 91.5t1 119.5v50l2 286q-2 188 -4 282q0 7 5 7h339
q6 0 6 -8q0 -238 -3 -444q-2 -91 3 -508q1 -66 -21 -132.5t-62 -108.5z" />
    <glyph glyph-name="K" unicode="K" horiz-adv-x="851" 
d="M735 398q14 -63 30.5 -154t27.5 -156.5t13 -72.5q2 -15 -6 -15h-305q-4 0 -6 7q-4 16 -21.5 97t-34 155t-20.5 88q-15 47 -32 48q-6 1 -10 -6q-3 -5 -5 -49t-3.5 -99.5t-2.5 -73.5q-5 -65 -5 -156q0 -11 -7 -11h-286q-7 0 -7 11q6 250 6 277v548q1 80 -1 229t-2 212
q0 11 6 11h308q7 0 7 -12q-11 -175 -10 -230v-39t2 -33t6.5 -29.5t11.5 -5.5q25 9 39 63q67 249 77 280q2 6 6 6h288q6 0 6 -12q-2 -55 -70 -322q-73 -286 -74 -293q-1 -9 11 -46.5t31.5 -100t31.5 -116.5z" />
    <glyph glyph-name="L" unicode="L" horiz-adv-x="862" 
d="M803 206l6 -191q0 -15 -11 -15h-730q-11 0 -11 15v32q0 1 0.5 1t0.5 1v8v640q0 248 2 319q2 95 0 142q-2 88 0 117q2 13 11 13h376q11 0 11 -15q1 -50 5 -144t5 -115q1 -25 1.5 -53t1 -62.5t0.5 -53.5q1 -29 -2 -135t-3 -121q1 -19 0 -36.5t2 -36t11 -29.5t69 -13t147 1
t105 2q9 0 8 -12q0 -3 -1 -58.5t-2 -71.5q-4 -54 -2 -129z" />
    <glyph glyph-name="M" unicode="M" horiz-adv-x="972" 
d="M900 618q0 -50 4 -202t8 -279l4 -127q0 -10 -7 -10h-272q-7 0 -7 10q2 64 -1.5 179.5t-3.5 166.5q0 22 -17 28q-16 6 -20 -14q-12 -65 -30.5 -182.5t-30.5 -180.5q-2 -7 -7 -7h-91q-5 0 -7 7q-11 53 -22.5 172t-25.5 179q-6 27 -23 30q-14 2 -17 -17q-1 -5 -1 -10
q1 -50 -6 -174.5t-6 -176.5q0 -10 -7 -10h-252q-7 0 -7 10v13q10 216 10.5 630t-1.5 422q-2 132 -2 198q0 1 -0.5 2.5t-0.5 2.5q0 10 8 10h349q5 0 7 -8q3 -26 13 -149t22 -183q2 -12 12.5 -16t20.5 -1q2 1 6 2t5 2t4 3t3.5 5.5t2 9.5t1.5 15q12 206 30 313q2 7 7 7h353
q7 0 7 -9q-1 -116 -6 -337.5t-6 -323.5z" />
    <glyph glyph-name="N" unicode="N" horiz-adv-x="872" 
d="M808 585q0 -65 -1 -216.5t-2 -236t0 -126.5q0 -6 -4 -6h-308q-3 0 -4 3q-15 55 -30 100q-8 24 -27.5 111t-35.5 118q-11 21 -30 10.5t-21 -37.5q-2 -52 1.5 -169.5t3.5 -129.5q0 -6 -4 -6l-287 1q-4 0 -4 6q0 112 4 336.5t4 337.5l-5 602q0 6 4 6l308 -1q2 0 4 -3
q12 -40 39.5 -175t46.5 -184q4 -11 14.5 -16t19.5 -2q17 6 21 38q5 54 5 337q0 5 4 5h283q4 0 4 -6q0 -1 -0.5 -2.5t-0.5 -2.5q0 -115 -1 -346t-1 -346z" />
    <glyph glyph-name="O" unicode="O" 
d="M807 961v-563q0 -99 -47 -207q-35 -78 -97 -126q-30 -23 -48 -34t-50 -21t-69 -10h-180q-52 4 -101 33.5t-82 69.5q-27 33 -52 101.5t-25 114.5q0 28 -0.5 311t-0.5 337q0 137 61 216q42 54 79 75t97 31h20q19 0 49 -0.5t63.5 -0.5h66h52.5q110 0 179 -82
q38 -44 61.5 -112t23.5 -133zM357 524q0 -131 75 -131q62 0 62 97q0 33 2.5 148t0.5 158q-3 57 -15 84.5t-50 27.5q-76 0 -76 -105q0 -12 0.5 -115t0.5 -164z" />
    <glyph glyph-name="P" unicode="P" horiz-adv-x="862" 
d="M807 940v-212q0 -80 -16.5 -173t-57.5 -144q-79 -100 -134 -124q-85 -36 -138 -36q-44 0 -59 -16t-19 -61q-4 -50 -2 -149q0 -10 -6 -17.5t-14 -7.5h-286q-8 0 -14 7t-6 17q9 311 9 426q0 76 -5 692q0 22 -0.5 68t-0.5 68q0 10 11 10h384q2 0 23 0.5t30 0t31 -2t37 -6
t36 -11t41 -18t39 -26.5q63 -49 90 -129.5t27 -155.5zM498 866q0 1 -0.5 14t-1.5 17.5t-3 17t-6 18.5t-9.5 13.5t-15 11t-21.5 3.5q-55 0 -63 -92q-2 -25 -3.5 -101t-0.5 -102q3 -100 62 -100q54 0 60 67q0 3 1 7v5q2 31 2.5 115t-1.5 106z" />
    <glyph glyph-name="Q" unicode="Q" horiz-adv-x="860" 
d="M805 311q2 -69 -1 -182q-2 -73 0 -111q2 -18 -11 -18h-461h-2q-36 0 -59.5 2t-66 20.5t-72.5 53.5q-79 94 -79 244q0 527 12 613q23 166 81 250q73 105 160 105h211q62 0 112 -29.5t80 -70.5q27 -36 45 -81t21 -63q24 -116 24 -223q0 -122 -12 -243.5t-40 -168.5
q-14 -24 -34 -38t-32.5 -18.5t-12.5 -6.5q0 -11 2.5 -14.5t11 -3t10.5 0.5q32 -5 102 -1q11 0 11 -17zM373 542q0 -40 13 -77.5t41 -37.5q32 0 45 26.5t13 100.5v223q0 52 -15.5 86.5t-39.5 34.5t-40.5 -27.5t-16.5 -78.5v-250z" />
    <glyph glyph-name="R" unicode="R" horiz-adv-x="866" 
d="M745 338q29 -98 69 -315q2 -8 -2 -15.5t-10 -7.5h-300q-9 0 -12 12q-2 9 -16.5 81.5t-30.5 133.5t-29 76q-8 10 -24.5 4.5t-17.5 -20.5q-9 -131 -3 -268q0 -19 -13 -19h-286q-13 0 -13 18v172v1q1 31 1 217t-1 213v2v253q7 288 4 401q0 11 6 11h478q67 0 139 -62
q59 -51 93 -129q8 -17 13.5 -33t9 -36t5.5 -31.5t3 -37.5t1 -35v-43v-43q0 -177 -29 -245q-6 -14 -16 -32.5t-20 -35t-19.5 -30.5t-16 -23.5t-6.5 -10.5t-1 -1h-1q-5 -8 -5.5 -12t5.5 -15t12.5 -21.5t16 -31t16.5 -42.5zM477 744q5 74 -3 147q-9 86 -61 86q-12 0 -22 -7.5
t-10 -15.5v-67q0 -13 -0.5 -51.5t-0.5 -71.5t1 -54l1 -6v-6.5t0.5 -6.5t1 -7t2 -6.5t3 -6t4 -4.5t5 -4.5t6.5 -3t9 -1.5q24 -2 42 19.5t22 66.5z" />
    <glyph glyph-name="S" unicode="S" 
d="M797 1288q1 -2 5 -6q3 -16 0 -97t-3 -134q0 -18 4 -74t4 -69q1 -7 -3.5 -13t-10.5 -6q-51 2 -145.5 11.5t-124.5 8.5q-47 -1 -76 -5t-51.5 -17.5t-22.5 -37.5q0 -23 9.5 -36.5t17 -16t20.5 -4.5q33 -7 72.5 -6t81.5 -1q45 -3 60.5 -5.5t38 -16t49.5 -42.5
q41 -44 62.5 -126t21.5 -261q0 -99 -53 -200q-16 -30 -48.5 -60.5t-71.5 -45.5q-24 -9 -54.5 -14.5t-51.5 -7t-47.5 -2t-31.5 -0.5l-375 -4q-14 0 -14 17q-1 34 3 98q3 21 2 123.5t-1 123.5q0 8 4.5 13t10.5 4q20 -2 67 -3t50 -1q136 -14 227 16q34 12 37 54q1 18 -11.5 28
t-36.5 12.5t-43.5 2t-47.5 -3.5t-34 -3q-53 -3 -81 6t-72 45q-31 25 -53.5 89t-24.5 116q-6 93 -2.5 188t31.5 173q19 54 42.5 85t64.5 56q34 20 83 34.5t86 14.5h437z" />
    <glyph glyph-name="T" unicode="T" horiz-adv-x="854" 
d="M794 1284q0 -41 4 -155t2 -176q-6 -142 -5 -158q0 -19 -16 -21q-35 -4 -62 -3t-52 -0.5t-36 -8.5q-22 -16 -26 -41q-7 -44 -7 -339.5t2 -359.5q0 -9 -5.5 -15.5t-12.5 -6.5h-316q-7 0 -12.5 6t-5.5 14q-1 41 6 307.5t4 294.5q-1 10 -1.5 30.5t-1.5 32.5t-6 26.5t-15 24.5
q-30 30 -85 35h-70q-7 0 -12 6.5t-5 14.5v1q0 78 -5 140q-6 66 -6 342q0 13 18 13h723q4 0 4 -4z" />
    <glyph glyph-name="U" unicode="U" horiz-adv-x="868" 
d="M633 38q-90 -38 -159 -38h-96q-80 0 -149.5 29.5t-109.5 91.5q-64 97 -64 334v172v647q0 14 10 14h285q10 0 10 -14v-226q0 -379 1 -393q3 -40 5 -59.5t8.5 -46t17.5 -37.5q20 -16 37 -12.5t25 14.5q10 14 15 34t5.5 39.5t1 42t0.5 42.5q1 28 1.5 206t1.5 220
q2 117 0 176q0 14 9 14h309q10 0 10 -14v-779q0 -63 -1 -93.5t-5.5 -88.5t-17.5 -100t-35 -72q-33 -46 -55 -66t-60 -37z" />
    <glyph glyph-name="V" unicode="V" horiz-adv-x="952" 
d="M560 1288h341q10 0 8 -10q-39 -329 -129 -962q-17 -127 -33 -309q0 -7 -8 -7h-517q-6 0 -8 6q-16 69 -27 149.5t-21.5 179t-17.5 151.5q-32 235 -47 321q-10 52 -32 252t-28 226q0 3 4 3h339q9 0 9 -8q4 -78 24.5 -218.5t26.5 -234.5q1 -16 11.5 -24t21.5 -3t12 20
q9 82 33 225t30 235q0 8 8 8z" />
    <glyph glyph-name="W" unicode="W" horiz-adv-x="1071" 
d="M768 1288h245q7 0 11 -7t3 -15q-17 -91 -26.5 -174.5t-18 -191.5t-15.5 -176q-10 -95 -19 -184t-12.5 -127.5t-7.5 -63.5q-4 -32 -8 -110.5t-7 -102.5q-1 -8 -12 -121q-2 -15 -14 -15h-257q-12 0 -14 13q-29 151 -31 299q-1 27 -25 37t-35 -17q-11 -31 -17 -66.5
t-10.5 -85.5t-7.5 -70q-4 -29 -8 -50t-7 -46q-2 -14 -14 -14h-267q-11 0 -14 12q-13 56 -29 177q-21 165 -32 314q-5 68 -18 192.5t-16 154.5q-4 37 -11 128t-14 157t-17 127v4v4q0 7 4 12.5t10 5.5h264q12 0 14 -17q2 -39 6.5 -84.5t9 -78t12 -85.5t10.5 -80q2 -18 16 -25
t28.5 0.5t17.5 24.5q24 115 42 329q2 16 15 16h101q14 0 14 -17q6 -213 33 -338q4 -22 32 -22t37 29q11 38 15.5 64t6.5 53t4 41q4 29 9.5 87.5t9.5 87.5q2 15 14 15z" />
    <glyph glyph-name="X" unicode="X" horiz-adv-x="845" 
d="M774 153q14 -83 28 -146q0 -3 -1 -5t-3 -2h-1h-282q-8 0 -10 11q-9 42 -24.5 135t-30.5 156q0 1 -2 10t-3.5 12.5t-4 10t-7 9.5t-9.5 3q-4 0 -6.5 -0.5t-4.5 -1.5t-3.5 -3.5t-2 -4.5l-1.5 -6t-1 -6.5t-1 -8t-1 -8.5q-1 -5 -10.5 -61t-19.5 -123.5t-14 -110.5
q-2 -13 -10 -13h-296q-5 0 -8 5t-2 12q1 11 15.5 88.5t23.5 115.5q9 37 24.5 108.5t17.5 81.5q43 191 49 203q13 33 -3 82q-30 90 -42 137q-12 51 -34 153q-32 158 -49 284q-2 18 10 18h283q8 0 10 -10q10 -45 23.5 -116t24 -128.5t10.5 -58.5q7 -34 17 -34q4 0 7 2.5t4.5 8
t2.5 10.5t2 13t2 12q2 8 9.5 59t18.5 121t18 110q2 11 10 11h290q5 0 8.5 -5t2.5 -12q-9 -109 -55 -286q-64 -233 -72 -271q-8 -37 11 -110q18 -72 36 -162q44 -211 56 -289z" />
    <glyph glyph-name="Y" unicode="Y" horiz-adv-x="884" 
d="M498 1288h339q2 0 3.5 -3.5t0.5 -7.5q-2 -7 -19 -86t-41.5 -185.5t-44.5 -174.5q-97 -331 -101 -355q-7 -50 -7 -112q0 -52 -4 -156q-4 -133 -1 -200q0 -8 -4 -8h-386q-5 0 -5 8q0 4 3 193.5t3 216.5q0 18 -1 29.5t-2 17t-5 20t-7 25.5q-1 5 -8.5 39t-21.5 94.5
t-31 125.5q-18 68 -39 158t-35.5 156t-27.5 126.5t-15 67.5q-2 11 5 11h334q5 0 5 -7q9 -190 25 -320q1 -12 7.5 -20t14.5 -8q18 0 23 28q10 45 24.5 182t14.5 139q2 6 4 6z" />
    <glyph glyph-name="Z" unicode="Z" horiz-adv-x="866" 
d="M802 271v-49t0.5 -68t0.5 -70t0.5 -54.5t0.5 -21.5q0 -7 -5 -7h-743q-5 0 -5 7q0 38 7 166q9 142 5 364v2q0 6 3 7q134 83 195 115q101 55 183 140q17 17 12 44q-2 12 -9.5 20.5t-15.5 7.5q-63 -4 -171 -18.5t-191 -16.5q-5 0 -5 8v2q0 62 -2.5 172t-2.5 156q0 52 -3 103
q0 8 5 8h738q5 0 5 -7v-529q0 -6 -2 -7q-62 -54 -112 -93t-123 -93t-123 -92q-18 -13 -11.5 -42.5t24.5 -29.5q61 0 107 5.5t113.5 17.5t124.5 20q5 0 5 -8q1 -38 -2 -84.5t-3 -74.5z" />
    <glyph glyph-name="bracketleft" unicode="[" horiz-adv-x="419" 
d="M362 1288q8 0 8 -13q-1 -69 -5 -207q0 -11 -7 -11q-86 -4 -97 -12q-1 0 -1 -0.5t-1 -0.5q-19 -8 -19 -36q-5 -91 -0.5 -429t19.5 -352q8 -8 19.5 -11t20.5 -2.5t23.5 2.5t20.5 2q8 0 8 -11q2 -56 8 -158q1 -6 1 -18t1 -18q0 -13 -8 -13h-285q-8 0 -8 12q2 834 -7 1251v12
q0 13 8 13h301z" />
    <glyph glyph-name="backslash" unicode="\" horiz-adv-x="833" 
d="M284 476q13 -43 71 -221t77 -252l2 -3h354q2 0 3 5t-1 9q-8 23 -17 50.5t-20 62t-17 52.5q-14 44 -112.5 382t-109.5 372q-47 152 -118 353l-2 2h-352q-2 0 -2.5 -5t0.5 -9q14 -35 106.5 -340.5t137.5 -457.5z" />
    <glyph glyph-name="bracketright" unicode="]" horiz-adv-x="444" 
d="M382 1276q-3 -181 -1.5 -697t2.5 -567q0 -12 -8 -12h-310q-8 0 -8 12q0 132 -1 198q0 12 7 12h13q14 -1 20.5 -0.5t21 1.5t22.5 4.5t17.5 8.5t14.5 14t5 21q8 451 -8 758q-1 20 -30 27t-58 4l-29 -2q-8 0 -8 11q-1 69 -1 207q0 12 8 12h323q8 0 8 -12z" />
    <glyph glyph-name="underscore" unicode="_" horiz-adv-x="860" 
d="M531 242q176 -2 265 -2q6 0 6 -8v-224q0 -8 -6 -8h-737q-6 0 -6 8v237q0 8 6 8q155 -1 246 -5t226 -6z" />
    <glyph glyph-name="grave" unicode="`" horiz-adv-x="425" 
d="M57 1288h301q8 0 8 -13q-9 -356 -9 -616q0 -9 -9 -9q-30 -6 -92 -4.5t-119 0.5q-8 0 -8 11q0 10 -1 14q-27 122 -40.5 190t-26 163.5t-12.5 172.5v80q0 11 8 11z" />
    <glyph glyph-name="a" unicode="a" horiz-adv-x="1017" 
d="M946 112q13 -55 30 -112h-413q0 1 -1 22.5t-2 32.5q-11 125 -26 192q-2 10 -4 27t-4 23t-7.5 14.5t-17 11t-31.5 3.5q-34 1 -44 -24t-16 -97q-13 -150 -14 -205h-355q15 67 30 148.5t23.5 135t23.5 156t21 141.5q14 95 56.5 295t57.5 308q8 56 11 104h453
q22 -223 94 -566q94 -446 135 -610zM457 884q-3 -20 -8 -59q-19 -143 -11 -183q9 -45 49 -47h3q3 -1 8.5 4.5t7.5 6.5q15 4 16 56t-4 90q-6 115 -32 146q-7 8 -17.5 4t-11.5 -18z" />
    <glyph glyph-name="b" unicode="b" horiz-adv-x="868" 
d="M814 395v-99q0 -44 -17 -91.5t-43 -78.5q-14 -17 -32.5 -32.5t-30.5 -23.5t-29.5 -18t-19.5 -12q-63 -40 -182 -40h-393q-7 0 -11 5t-3 11q9 60 13.5 265t0.5 290q-4 77 -7.5 269t-2.5 238q2 114 2 195q0 15 14 15h490q80 0 144 -45q91 -65 91 -240q0 -51 -1.5 -80
t-12 -65.5t-30.5 -62.5q-12 -16 -24.5 -27t-19 -15t-23 -12t-22.5 -11q-51 -26 -10 -48q72 -38 101 -75q34 -43 46 -92t12 -120zM448 265q8 13 12 31t4 31t-1 36t-1 32v17.5t-0.5 19t-1.5 18t-2 19.5t-4 17t-6.5 17.5t-8.5 14t-12 12.5q-12 10 -26 7q-10 0 -13.5 -5.5
t-3.5 -20.5q1 -20 -2 -88t-2 -117.5t9 -56.5q31 -26 59 16zM426 757q22 10 32.5 38.5t11.5 49t0 55.5v23.5t-0.5 25t-2 21.5t-4 23.5t-7.5 20t-12 21.5q-17 22 -38 10q-16 -9 -14 -27q0 -45 -6 -244q-1 -13 13.5 -18t26.5 1z" />
    <glyph glyph-name="c" unicode="c" horiz-adv-x="874" 
d="M801 507q0 -11 -1.5 -68.5t-2.5 -101.5t0 -101.5t5 -92.5v-124q0 -19 -19 -19v0h1v0h1h1h1h1h1h1h1h1h1h1h1h1h1h1h1h1h1h1h1h1h1h1h1h1h1h1h1h1h1h1h1h1h1h1h1h1h1h1h1v0h1h1v0h1v0h1v0h1v0h1v0v0h1v0v0v0h1v0v0v0v0v0v0v0v0v0v0v0h-1v0v0v0h-1v0v0h-1v0v0h-1v0h-1v0h-1
v0h-1v0h-1v0h-1v0h-1v0h-1v0h-1h-1v0h-1h-1h-1v0h-1h-1h-1h-1h-1h-1h-1h-1h-1h-1h-1h-1h-1h-1h-1h-1h-1h-1h-1h-1h-1h-1h-1h-1h-1h-1h-1h-1h-1h-1h-1h-1h-1h-1h-1h-1h-1h-1h-1h-1h-1h-1h-1h-1h-1h-1h-1h-1h-1h-1h-1h-1h-1h-1h-1h-1h-1h-1h-1h-1h-1h-1h-1h-1h-1h-1h-1h-1h-1
h-1h-1h-1h-1h-1h-1h-1h-1h-1h-1h-1h-1h-1h-1h-1h-1h-1h-1h-1h-1h-1h-1h-1h-1h-1h-1h-1h-1h-1h-1h-1h-1h-1h-1h-1h-1h-1h-1h-1h-1h-1h-1h-1h-1h-1h-1h-1h-1h-1h-1h-1h-1h-1h-1h-1h-9q-92 0 -161 8t-117 26t-66.5 27.5t-52.5 30.5q-107 67 -150 136q-50 78 -67 145t-17 144
v246v-19v-3v-2v-2v-1v-2v-1v-1v-1v-1v-1v-1v-1v-1v0v-1v0v0v0v0v0v1v0v1v0v1v0v1v1v1v1v1v1v1v1v1v1v1v1v1v1v1v1v1v1v1v1v1v1v1v1v1v1v1v1v1v9q0 132 39 247q26 77 125 172q107 103 391 103h5h6h5h6h5h6h6h6h6h6h6h6h6h7h7h7h7h8h8h8h10h12h16h-2q8 0 20.5 -11.5
t12.5 -19.5v-105q0 -6 -1 -16.5t-2 -15.5q-2 -35 -1.5 -108t2.5 -146l2 -74q0 -8 -6 -14t-13 -5q-32 2 -236 -9q-35 -2 -59.5 -16t-35.5 -35t-15 -38t-4 -33q0 -55 28 -82q40 -37 130 -44q29 -3 64 -2.5t60.5 2t46 3.5t21.5 2q13 0 18 -14z" />
    <glyph glyph-name="d" unicode="d" horiz-adv-x="860" 
d="M803 377q0 -74 -36 -153.5t-106 -131.5q-42 -32 -95 -53t-84 -26.5t-54 -7.5q-21 -1 -98 -2.5t-83 -1.5l-167 -1q-7 0 -12 6t-4 14q4 33 5 212.5t-2 258.5q-1 40 -4 113.5t-5 133.5t-3 113v354l3 66q0 7 5 12t12 5h261v0h-1h-1h-1h-1h-1h-1h-1h-2h-1h-1h-1h-2h-1h-1h-1
h-1h-1h-1h-1h-1h-1h-1h-1h-1h-1h-1h-1h-1h-1v0h-1v0h-1v0v0h-1v0v0v0v0h1v0v0v0h1v0h1v0h1v0h1v0h1v0h1h1h1h1v0h1h1h1h1h1h1h1h1h1h1h1h1h1h1h1h1h1h1h1h1h1h1h1h1h1h1h1h1h1h1h1h1h1h1h1h1h1h1h1h1h1h1h1h1h1h1h1h1h1h1h1h1h1h1h1h1h1h10q117 0 170.5 -16t134.5 -87
q40 -35 66 -81t36 -96.5t13 -86t4 -78.5v-15v-119v-213v-119zM478 523q6 32 6 105.5t-5 113.5q-14 114 -66 114q-19 0 -27 -16t-8 -63v-252q0 -25 0.5 -37t3.5 -27.5t10.5 -22t20.5 -6.5q29 0 42 19t23 72z" />
    <glyph glyph-name="e" unicode="e" horiz-adv-x="860" 
d="M794 340v-114l8 -209q0 -7 -5 -12t-12 -5h-707q-11 0 -19.5 8.5t-7.5 19.5q7 172 11 618q1 59 7 190.5t5 230.5t-14 190q-2 12 6 21.5t20 9.5h692q14 0 17 -13q1 -1 -4 -51q-2 -21 -6 -184q0 -18 2 -49.5t5 -54.5l2 -22q0 -7 -5 -12t-12 -5q-186 9 -290 -6
q-93 -14 -98 -69q-2 -22 12.5 -38t36.5 -24q11 -3 64 -4.5t106 -1t110.5 1t58.5 0.5q7 0 12 -5t5 -12v-170q0 -15 -0.5 -38t-0.5 -36q0 -16 -16 -16q-48 0 -121.5 4.5t-96.5 3.5q-5 0 -28.5 -0.5t-36 -1.5t-31.5 -5t-31.5 -12.5t-19.5 -22.5q-19 -36 4 -63t62 -36
q44 -5 77 -3.5t108.5 7t112.5 6.5q18 0 18 -16z" />
    <glyph glyph-name="f" unicode="f" horiz-adv-x="876" 
d="M814 1269v-2q0 -1 -0.5 -3t-0.5 -4q0 -36 -1.5 -109t-1.5 -109l4 -111v-70q0 -11 -11 -11q-54 0 -119 4.5t-90 5.5t-83 -5q-62 -11 -58 -85q3 -36 23.5 -53.5t65.5 -23.5q55 -7 260 6q12 2 12 -11q-3 -247 0 -260v-41q0 -11 -11 -11q-1 0 -35 -0.5t-51 -1t-49.5 -3
t-61 -7.5t-55.5 -12q-14 -4 -31 -7.5t-24.5 -5.5t-17 -7t-15 -13t-12 -22.5t-13.5 -37.5q-8 -25 -8.5 -57.5t3.5 -60t9.5 -66t6.5 -63.5q0 -12 -12 -12h-368q-12 0 -12 11q1 26 1.5 62.5t1.5 127.5t-2 100l-1 195q2 33 2 305.5t-2 322.5v153q0 11 12 11h734q11 0 11 -11v-8z
" />
    <glyph glyph-name="g" unicode="g" horiz-adv-x="866" 
d="M793 325l13 -308q0 -7 -5.5 -12t-12.5 -5h-397q-125 0 -214 84q-63 59 -92.5 152.5t-29.5 168.5l-2 459q0 215 106 316q113 108 293 108h336q7 0 12.5 -5t5.5 -12q-3 -321 -5 -475q0 -7 -5.5 -12t-13.5 -5q-24 1 -78 4.5t-96 5.5t-67 0q-5 0 -26 -0.5t-33.5 -1.5t-33 -6
t-33 -14.5t-24.5 -27t-17 -42.5q-11 -57 -6 -172q1 -14 1 -37.5t0.5 -34t4.5 -25t11.5 -21t22 -10.5t36.5 -4q76 1 70 99q-4 77 -2 160q0 30 36 29h232q8 0 13.5 -5t5.5 -12q0 -14 -0.5 -42t-0.5 -42q0 -52 -2 -127t-3 -128z" />
    <glyph glyph-name="h" unicode="h" horiz-adv-x="868" 
d="M804 1276q0 -418 1 -616q0 -55 -0.5 -140.5t-1.5 -169.5t-2 -159.5t-1.5 -125t-0.5 -51.5q0 -14 -11 -14h-286q-11 0 -11 14q0 92 -5 187q0 4 -1 30t-2 37.5t-3.5 35.5t-6.5 37t-10 28.5t-15.5 22.5t-21.5 7t-21.5 -8t-14.5 -21.5t-9 -31t-5 -36t-1.5 -37t0 -33.5
t-0.5 -26q-1 -36 1.5 -101t2.5 -90q0 -15 -11 -15h-297q-13 0 -11 16q19 232 -6 1257q0 15 11 15h299q11 0 11 -15q-2 -43 -2 -269q0 -81 16.5 -107.5t57.5 -17.5q11 3 19.5 8t13 14.5t7.5 17.5t4 24t1.5 25t0 30t-0.5 30q0 100 -8 244q0 16 11 16h299q9 0 11 -12z" />
    <glyph glyph-name="i" unicode="i" horiz-adv-x="530" 
d="M63 1288h376q10 0 17 -7t6 -17q-8 -235 -6 -510t6 -444q2 -115 15 -286q1 -10 -5.5 -17t-16.5 -7h-389q-9 0 -7 9q14 71 5 549q-9 480 -9 722z" />
    <glyph glyph-name="j" unicode="j" 
d="M720 87q-83 -87 -178 -87h-199q-68 0 -118.5 19t-101.5 72q-35 37 -52.5 88.5t-18 103.5t0 112.5t-0.5 114.5v1v119q0 7 5 7q97 0 127.5 4t131.5 3q5 0 5 -7q0 -209 7 -230q20 -55 59 -55q25 0 40 22t20.5 78t6.5 91.5t1 119.5v50l2 286q-2 188 -4 282q0 7 5 7h339
q6 0 6 -8q0 -238 -3 -444q-2 -91 3 -508q1 -66 -21 -132.5t-62 -108.5z" />
    <glyph glyph-name="k" unicode="k" horiz-adv-x="851" 
d="M735 398q14 -63 30.5 -154t27.5 -156.5t13 -72.5q2 -15 -6 -15h-305q-4 0 -6 7q-4 16 -21.5 97t-34 155t-20.5 88q-15 47 -32 48q-6 1 -10 -6q-3 -5 -5 -49t-3.5 -99.5t-2.5 -73.5q-5 -65 -5 -156q0 -11 -7 -11h-286q-7 0 -7 11q6 250 6 277v548q1 80 -1 229t-2 212
q0 11 6 11h308q7 0 7 -12q-11 -175 -10 -230v-39t2 -33t6.5 -29.5t11.5 -5.5q25 9 39 63q67 249 77 280q2 6 6 6h288q6 0 6 -12q-2 -55 -70 -322q-73 -286 -74 -293q-1 -9 11 -46.5t31.5 -100t31.5 -116.5z" />
    <glyph glyph-name="l" unicode="l" horiz-adv-x="862" 
d="M803 206l6 -191q0 -15 -11 -15h-730q-11 0 -11 15v32q0 1 0.5 1t0.5 1v8v640q0 248 2 319q2 95 0 142q-2 88 0 117q2 13 11 13h376q11 0 11 -15q1 -50 5 -144t5 -115q1 -25 1.5 -53t1 -62.5t0.5 -53.5q1 -29 -2 -135t-3 -121q1 -19 0 -36.5t2 -36t11 -29.5t69 -13t147 1
t105 2q9 0 8 -12q0 -3 -1 -58.5t-2 -71.5q-4 -54 -2 -129z" />
    <glyph glyph-name="m" unicode="m" horiz-adv-x="972" 
d="M900 618q0 -50 4 -202t8 -279l4 -127q0 -10 -7 -10h-272q-7 0 -7 10q2 64 -1.5 179.5t-3.5 166.5q0 22 -17 28q-16 6 -20 -14q-12 -65 -30.5 -182.5t-30.5 -180.5q-2 -7 -7 -7h-91q-5 0 -7 7q-11 53 -22.5 172t-25.5 179q-6 27 -23 30q-14 2 -17 -17q-1 -5 -1 -10
q1 -50 -6 -174.5t-6 -176.5q0 -10 -7 -10h-252q-7 0 -7 10v13q10 216 10.5 630t-1.5 422q-2 132 -2 198q0 1 -0.5 2.5t-0.5 2.5q0 10 8 10h349q5 0 7 -8q3 -26 13 -149t22 -183q2 -12 12.5 -16t20.5 -1q2 1 6 2t5 2t4 3t3.5 5.5t2 9.5t1.5 15q12 206 30 313q2 7 7 7h353
q7 0 7 -9q-1 -116 -6 -337.5t-6 -323.5z" />
    <glyph glyph-name="n" unicode="n" horiz-adv-x="872" 
d="M808 585q0 -65 -1 -216.5t-2 -236t0 -126.5q0 -6 -4 -6h-308q-3 0 -4 3q-15 55 -30 100q-8 24 -27.5 111t-35.5 118q-11 21 -30 10.5t-21 -37.5q-2 -52 1.5 -169.5t3.5 -129.5q0 -6 -4 -6l-287 1q-4 0 -4 6q0 112 4 336.5t4 337.5l-5 602q0 6 4 6l308 -1q2 0 4 -3
q12 -40 39.5 -175t46.5 -184q4 -11 14.5 -16t19.5 -2q17 6 21 38q5 54 5 337q0 5 4 5h283q4 0 4 -6q0 -1 -0.5 -2.5t-0.5 -2.5q0 -115 -1 -346t-1 -346z" />
    <glyph glyph-name="o" unicode="o" 
d="M807 961v-563q0 -99 -47 -207q-35 -78 -97 -126q-30 -23 -48 -34t-50 -21t-69 -10h-180q-52 4 -101 33.5t-82 69.5q-27 33 -52 101.5t-25 114.5q0 28 -0.5 311t-0.5 337q0 137 61 216q42 54 79 75t97 31h20q19 0 49 -0.5t63.5 -0.5h66h52.5q110 0 179 -82
q38 -44 61.5 -112t23.5 -133zM357 524q0 -131 75 -131q62 0 62 97q0 33 2.5 148t0.5 158q-3 57 -15 84.5t-50 27.5q-76 0 -76 -105q0 -12 0.5 -115t0.5 -164z" />
    <glyph glyph-name="p" unicode="p" horiz-adv-x="862" 
d="M807 940v-212q0 -80 -16.5 -173t-57.5 -144q-79 -100 -134 -124q-85 -36 -138 -36q-44 0 -59 -16t-19 -61q-4 -50 -2 -149q0 -10 -6 -17.5t-14 -7.5h-286q-8 0 -14 7t-6 17q9 311 9 426q0 76 -5 692q0 22 -0.5 68t-0.5 68q0 10 11 10h384q2 0 23 0.5t30 0t31 -2t37 -6
t36 -11t41 -18t39 -26.5q63 -49 90 -129.5t27 -155.5zM498 866q0 1 -0.5 14t-1.5 17.5t-3 17t-6 18.5t-9.5 13.5t-15 11t-21.5 3.5q-55 0 -63 -92q-2 -25 -3.5 -101t-0.5 -102q3 -100 62 -100q54 0 60 67q0 3 1 7v5q2 31 2.5 115t-1.5 106z" />
    <glyph glyph-name="q" unicode="q" horiz-adv-x="860" 
d="M805 311q2 -69 -1 -182q-2 -73 0 -111q2 -18 -11 -18h-461h-2q-36 0 -59.5 2t-66 20.5t-72.5 53.5q-79 94 -79 244q0 527 12 613q23 166 81 250q73 105 160 105h211q62 0 112 -29.5t80 -70.5q27 -36 45 -81t21 -63q24 -116 24 -223q0 -122 -12 -243.5t-40 -168.5
q-14 -24 -34 -38t-32.5 -18.5t-12.5 -6.5q0 -11 2.5 -14.5t11 -3t10.5 0.5q32 -5 102 -1q11 0 11 -17zM373 542q0 -40 13 -77.5t41 -37.5q32 0 45 26.5t13 100.5v223q0 52 -15.5 86.5t-39.5 34.5t-40.5 -27.5t-16.5 -78.5v-250z" />
    <glyph glyph-name="r" unicode="r" horiz-adv-x="866" 
d="M745 338q29 -98 69 -315q2 -8 -2 -15.5t-10 -7.5h-300q-9 0 -12 12q-2 9 -16.5 81.5t-30.5 133.5t-29 76q-8 10 -24.5 4.5t-17.5 -20.5q-9 -131 -3 -268q0 -19 -13 -19h-286q-13 0 -13 18v172v1q1 31 1 217t-1 213v2v253q7 288 4 401q0 11 6 11h478q67 0 139 -62
q59 -51 93 -129q8 -17 13.5 -33t9 -36t5.5 -31.5t3 -37.5t1 -35v-43v-43q0 -177 -29 -245q-6 -14 -16 -32.5t-20 -35t-19.5 -30.5t-16 -23.5t-6.5 -10.5t-1 -1h-1q-5 -8 -5.5 -12t5.5 -15t12.5 -21.5t16 -31t16.5 -42.5zM477 744q5 74 -3 147q-9 86 -61 86q-12 0 -22 -7.5
t-10 -15.5v-67q0 -13 -0.5 -51.5t-0.5 -71.5t1 -54l1 -6v-6.5t0.5 -6.5t1 -7t2 -6.5t3 -6t4 -4.5t5 -4.5t6.5 -3t9 -1.5q24 -2 42 19.5t22 66.5z" />
    <glyph glyph-name="s" unicode="s" 
d="M797 1288q1 -2 5 -6q3 -16 0 -97t-3 -134q0 -18 4 -74t4 -69q1 -7 -3.5 -13t-10.5 -6q-51 2 -145.5 11.5t-124.5 8.5q-47 -1 -76 -5t-51.5 -17.5t-22.5 -37.5q0 -23 9.5 -36.5t17 -16t20.5 -4.5q33 -7 72.5 -6t81.5 -1q45 -3 60.5 -5.5t38 -16t49.5 -42.5
q41 -44 62.5 -126t21.5 -261q0 -99 -53 -200q-16 -30 -48.5 -60.5t-71.5 -45.5q-24 -9 -54.5 -14.5t-51.5 -7t-47.5 -2t-31.5 -0.5l-375 -4q-14 0 -14 17q-1 34 3 98q3 21 2 123.5t-1 123.5q0 8 4.5 13t10.5 4q20 -2 67 -3t50 -1q136 -14 227 16q34 12 37 54q1 18 -11.5 28
t-36.5 12.5t-43.5 2t-47.5 -3.5t-34 -3q-53 -3 -81 6t-72 45q-31 25 -53.5 89t-24.5 116q-6 93 -2.5 188t31.5 173q19 54 42.5 85t64.5 56q34 20 83 34.5t86 14.5h437z" />
    <glyph glyph-name="t" unicode="t" horiz-adv-x="854" 
d="M794 1284q0 -41 4 -155t2 -176q-6 -142 -5 -158q0 -19 -16 -21q-35 -4 -62 -3t-52 -0.5t-36 -8.5q-22 -16 -26 -41q-7 -44 -7 -339.5t2 -359.5q0 -9 -5.5 -15.5t-12.5 -6.5h-316q-7 0 -12.5 6t-5.5 14q-1 41 6 307.5t4 294.5q-1 10 -1.5 30.5t-1.5 32.5t-6 26.5t-15 24.5
q-30 30 -85 35h-70q-7 0 -12 6.5t-5 14.5v1q0 78 -5 140q-6 66 -6 342q0 13 18 13h723q4 0 4 -4z" />
    <glyph glyph-name="u" unicode="u" horiz-adv-x="868" 
d="M633 38q-90 -38 -159 -38h-96q-80 0 -149.5 29.5t-109.5 91.5q-64 97 -64 334v172v647q0 14 10 14h285q10 0 10 -14v-226q0 -379 1 -393q3 -40 5 -59.5t8.5 -46t17.5 -37.5q20 -16 37 -12.5t25 14.5q10 14 15 34t5.5 39.5t1 42t0.5 42.5q1 28 1.5 206t1.5 220
q2 117 0 176q0 14 9 14h309q10 0 10 -14v-779q0 -63 -1 -93.5t-5.5 -88.5t-17.5 -100t-35 -72q-33 -46 -55 -66t-60 -37z" />
    <glyph glyph-name="v" unicode="v" horiz-adv-x="952" 
d="M560 1288h341q10 0 8 -10q-39 -329 -129 -962q-17 -127 -33 -309q0 -7 -8 -7h-517q-6 0 -8 6q-16 69 -27 149.5t-21.5 179t-17.5 151.5q-32 235 -47 321q-10 52 -32 252t-28 226q0 3 4 3h339q9 0 9 -8q4 -78 24.5 -218.5t26.5 -234.5q1 -16 11.5 -24t21.5 -3t12 20
q9 82 33 225t30 235q0 8 8 8z" />
    <glyph glyph-name="w" unicode="w" horiz-adv-x="1071" 
d="M768 1288h245q7 0 11 -7t3 -15q-17 -91 -26.5 -174.5t-18 -191.5t-15.5 -176q-10 -95 -19 -184t-12.5 -127.5t-7.5 -63.5q-4 -32 -8 -110.5t-7 -102.5q-1 -8 -12 -121q-2 -15 -14 -15h-257q-12 0 -14 13q-29 151 -31 299q-1 27 -25 37t-35 -17q-11 -31 -17 -66.5
t-10.5 -85.5t-7.5 -70q-4 -29 -8 -50t-7 -46q-2 -14 -14 -14h-267q-11 0 -14 12q-13 56 -29 177q-21 165 -32 314q-5 68 -18 192.5t-16 154.5q-4 37 -11 128t-14 157t-17 127v4v4q0 7 4 12.5t10 5.5h264q12 0 14 -17q2 -39 6.5 -84.5t9 -78t12 -85.5t10.5 -80q2 -18 16 -25
t28.5 0.5t17.5 24.5q24 115 42 329q2 16 15 16h101q14 0 14 -17q6 -213 33 -338q4 -22 32 -22t37 29q11 38 15.5 64t6.5 53t4 41q4 29 9.5 87.5t9.5 87.5q2 15 14 15z" />
    <glyph glyph-name="x" unicode="x" horiz-adv-x="845" 
d="M774 153q14 -83 28 -146q0 -3 -1 -5t-3 -2h-1h-282q-8 0 -10 11q-9 42 -24.5 135t-30.5 156q0 1 -2 10t-3.5 12.5t-4 10t-7 9.5t-9.5 3q-4 0 -6.5 -0.5t-4.5 -1.5t-3.5 -3.5t-2 -4.5l-1.5 -6t-1 -6.5t-1 -8t-1 -8.5q-1 -5 -10.5 -61t-19.5 -123.5t-14 -110.5
q-2 -13 -10 -13h-296q-5 0 -8 5t-2 12q1 11 15.5 88.5t23.5 115.5q9 37 24.5 108.5t17.5 81.5q43 191 49 203q13 33 -3 82q-30 90 -42 137q-12 51 -34 153q-32 158 -49 284q-2 18 10 18h283q8 0 10 -10q10 -45 23.5 -116t24 -128.5t10.5 -58.5q7 -34 17 -34q4 0 7 2.5t4.5 8
t2.5 10.5t2 13t2 12q2 8 9.5 59t18.5 121t18 110q2 11 10 11h290q5 0 8.5 -5t2.5 -12q-9 -109 -55 -286q-64 -233 -72 -271q-8 -37 11 -110q18 -72 36 -162q44 -211 56 -289z" />
    <glyph glyph-name="y" unicode="y" horiz-adv-x="884" 
d="M498 1288h339q2 0 3.5 -3.5t0.5 -7.5q-2 -7 -19 -86t-41.5 -185.5t-44.5 -174.5q-97 -331 -101 -355q-7 -50 -7 -112q0 -52 -4 -156q-4 -133 -1 -200q0 -8 -4 -8h-386q-5 0 -5 8q0 4 3 193.5t3 216.5q0 18 -1 29.5t-2 17t-5 20t-7 25.5q-1 5 -8.5 39t-21.5 94.5
t-31 125.5q-18 68 -39 158t-35.5 156t-27.5 126.5t-15 67.5q-2 11 5 11h334q5 0 5 -7q9 -190 25 -320q1 -12 7.5 -20t14.5 -8q18 0 23 28q10 45 24.5 182t14.5 139q2 6 4 6z" />
    <glyph glyph-name="z" unicode="z" horiz-adv-x="866" 
d="M802 271v-49t0.5 -68t0.5 -70t0.5 -54.5t0.5 -21.5q0 -7 -5 -7h-743q-5 0 -5 7q0 38 7 166q9 142 5 364v2q0 6 3 7q134 83 195 115q101 55 183 140q17 17 12 44q-2 12 -9.5 20.5t-15.5 7.5q-63 -4 -171 -18.5t-191 -16.5q-5 0 -5 8v2q0 62 -2.5 172t-2.5 156q0 52 -3 103
q0 8 5 8h738q5 0 5 -7v-529q0 -6 -2 -7q-62 -54 -112 -93t-123 -93t-123 -92q-18 -13 -11.5 -42.5t24.5 -29.5q61 0 107 5.5t113.5 17.5t124.5 20q5 0 5 -8q1 -38 -2 -84.5t-3 -74.5z" />
    <glyph glyph-name="periodcentered" unicode="&#xb7;" horiz-adv-x="825" 
d="M696 627q2 -3 0 -6q-16 -30 -74 -97q-5 -5 -16 -18.5t-16 -19.5q-10 12 -30.5 36.5t-36.5 42.5t-33 34q-10 9 -22.5 4.5t-15.5 -15.5t6 -22q17 -16 33.5 -35t36 -43t31.5 -37q-13 -16 -24 -28q-85 -93 -116 -137q-3 -3 -6 0q-54 61 -117 137q-4 5 -12.5 15.5t-13.5 15.5
q7 6 24.5 21.5t25.5 23t22 20t24.5 24t21.5 23.5q9 10 4.5 23t-15.5 16t-22 -6q-31 -35 -114 -110q-17 21 -41 52q-40 53 -74 85q-3 3 -1 6q7 13 18 27.5t19 23.5t22.5 25t20.5 23q3 3 42 53l6 6q16 -16 50.5 -56.5t53.5 -57.5q10 -9 23 -5t16 15t-6 22q-20 19 -57.5 61
t-51.5 56q4 4 12.5 14.5t12.5 14.5q62 73 118 135q3 3 6 0q20 -22 58 -66q23 -27 72 -100q0 -1 1 -1l1 -2q-4 -5 -13 -14.5t-14 -13.5q-8 -8 -27.5 -25.5t-34 -32.5t-23.5 -29q-8 -12 -0.5 -22.5t19.5 -10.5t21 10q8 12 21.5 25.5t31 29.5t24.5 23q4 3 11 9.5t10 10.5
q63 -97 108 -153z" />
    <glyph glyph-name="Agrave" unicode="&#xc0;" horiz-adv-x="999" 
d="M949 0h-513q-7 0 -7 10q1 49 32 345q1 3 7.5 5.5t10.5 1.5q8 -2 46.5 -2.5t48.5 0.5q2 0 9.5 3.5t16 13t7.5 20.5q-1 6 -13 90.5t-24 174t-13 123.5q-5 105 -43 106q-43 2 -54 -74q-5 -40 -65.5 -381t-62.5 -427q0 -9 -6 -9h-278q-9 0 -7 12q1 6 3 17.5t3 17.5
q20 116 97 472q15 71 67 397t56 364q0 8 7 8h455q4 0 6 -7q5 -28 40 -234t45 -263q15 -80 53 -328q60 -357 82 -443q2 -5 0 -9t-6 -4z" />
    <glyph glyph-name="Aacute" unicode="&#xc1;" horiz-adv-x="999" 
d="M949 0h-513q-7 0 -7 10q1 49 32 345q1 3 7.5 5.5t10.5 1.5q8 -2 46.5 -2.5t48.5 0.5q2 0 9.5 3.5t16 13t7.5 20.5q-1 6 -13 90.5t-24 174t-13 123.5q-5 105 -43 106q-43 2 -54 -74q-5 -40 -65.5 -381t-62.5 -427q0 -9 -6 -9h-278q-9 0 -7 12q1 6 3 17.5t3 17.5
q20 116 97 472q15 71 67 397t56 364q0 8 7 8h455q4 0 6 -7q5 -28 40 -234t45 -263q15 -80 53 -328q60 -357 82 -443q2 -5 0 -9t-6 -4z" />
    <glyph glyph-name="Acircumflex" unicode="&#xc2;" horiz-adv-x="999" 
d="M949 0h-513q-7 0 -7 10q1 49 32 345q1 3 7.5 5.5t10.5 1.5q8 -2 46.5 -2.5t48.5 0.5q2 0 9.5 3.5t16 13t7.5 20.5q-1 6 -13 90.5t-24 174t-13 123.5q-5 105 -43 106q-43 2 -54 -74q-5 -40 -65.5 -381t-62.5 -427q0 -9 -6 -9h-278q-9 0 -7 12q1 6 3 17.5t3 17.5
q20 116 97 472q15 71 67 397t56 364q0 8 7 8h455q4 0 6 -7q5 -28 40 -234t45 -263q15 -80 53 -328q60 -357 82 -443q2 -5 0 -9t-6 -4z" />
    <glyph glyph-name="Atilde" unicode="&#xc3;" horiz-adv-x="999" 
d="M949 0h-513q-7 0 -7 10q1 49 32 345q1 3 7.5 5.5t10.5 1.5q8 -2 46.5 -2.5t48.5 0.5q2 0 9.5 3.5t16 13t7.5 20.5q-1 6 -13 90.5t-24 174t-13 123.5q-5 105 -43 106q-43 2 -54 -74q-5 -40 -65.5 -381t-62.5 -427q0 -9 -6 -9h-278q-9 0 -7 12q1 6 3 17.5t3 17.5
q20 116 97 472q15 71 67 397t56 364q0 8 7 8h455q4 0 6 -7q5 -28 40 -234t45 -263q15 -80 53 -328q60 -357 82 -443q2 -5 0 -9t-6 -4z" />
    <glyph glyph-name="Adieresis" unicode="&#xc4;" horiz-adv-x="999" 
d="M949 0h-513q-7 0 -7 10q1 49 32 345q1 3 7.5 5.5t10.5 1.5q8 -2 46.5 -2.5t48.5 0.5q2 0 9.5 3.5t16 13t7.5 20.5q-1 6 -13 90.5t-24 174t-13 123.5q-5 105 -43 106q-43 2 -54 -74q-5 -40 -65.5 -381t-62.5 -427q0 -9 -6 -9h-278q-9 0 -7 12q1 6 3 17.5t3 17.5
q20 116 97 472q15 71 67 397t56 364q0 8 7 8h455q4 0 6 -7q5 -28 40 -234t45 -263q15 -80 53 -328q60 -357 82 -443q2 -5 0 -9t-6 -4z" />
    <glyph glyph-name="Aring" unicode="&#xc5;" horiz-adv-x="999" 
d="M949 0h-513q-7 0 -7 10q1 49 32 345q1 3 7.5 5.5t10.5 1.5q8 -2 46.5 -2.5t48.5 0.5q2 0 9.5 3.5t16 13t7.5 20.5q-1 6 -13 90.5t-24 174t-13 123.5q-5 105 -43 106q-43 2 -54 -74q-5 -40 -65.5 -381t-62.5 -427q0 -9 -6 -9h-278q-9 0 -7 12q1 6 3 17.5t3 17.5
q20 116 97 472q15 71 67 397t56 364q0 8 7 8h455q4 0 6 -7q5 -28 40 -234t45 -263q15 -80 53 -328q60 -357 82 -443q2 -5 0 -9t-6 -4z" />
    <glyph glyph-name="Ccedilla" unicode="&#xc7;" horiz-adv-x="874" 
d="M801 507q0 -11 -1.5 -68.5t-2.5 -101.5t0 -101.5t5 -92.5v-124q0 -19 -19 -19v0h1v0h1h1h1h1h1h1h1h1h1h1h1h1h1h1h1h1h1h1h1h1h1h1h1h1h1h1h1h1h1h1h1h1h1h1h1h1h1h1h1v0h1h1v0h1v0h1v0h1v0h1v0v0h1v0v0v0h1v0v0v0v0v0v0v0v0v0v0v0h-1v0v0v0h-1v0v0h-1v0v0h-1v0h-1v0h-1
v0h-1v0h-1v0h-1v0h-1v0h-1v0h-1h-1v0h-1h-1h-1v0h-1h-1h-1h-1h-1h-1h-1h-1h-1h-1h-1h-1h-1h-1h-1h-1h-1h-1h-1h-1h-1h-1h-1h-1h-1h-1h-1h-1h-1h-1h-1h-1h-1h-1h-1h-1h-1h-1h-1h-1h-1h-1h-1h-1h-1h-1h-1h-1h-1h-1h-1h-1h-1h-1h-1h-1h-1h-1h-1h-1h-1h-1h-1h-1h-1h-1h-1h-1h-1
h-1h-1h-1h-1h-1h-1h-1h-1h-1h-1h-1h-1h-1h-1h-1h-1h-1h-1h-1h-1h-1h-1h-1h-1h-1h-1h-1h-1h-1h-1h-1h-1h-1h-1h-1h-1h-1h-1h-1h-1h-1h-1h-1h-1h-1h-1h-1h-1h-1h-1h-1h-1h-1h-1h-1h-9q-92 0 -161 8t-117 26t-66.5 27.5t-52.5 30.5q-107 67 -150 136q-50 78 -67 145t-17 144
v246v-19v-3v-2v-2v-1v-2v-1v-1v-1v-1v-1v-1v-1v-1v0v-1v0v0v0v0v0v1v0v1v0v1v0v1v1v1v1v1v1v1v1v1v1v1v1v1v1v1v1v1v1v1v1v1v1v1v1v1v1v1v1v1v9q0 132 39 247q26 77 125 172q107 103 391 103h5h6h5h6h5h6h6h6h6h6h6h6h6h7h7h7h7h8h8h8h10h12h16h-2q8 0 20.5 -11.5
t12.5 -19.5v-105q0 -6 -1 -16.5t-2 -15.5q-2 -35 -1.5 -108t2.5 -146l2 -74q0 -8 -6 -14t-13 -5q-32 2 -236 -9q-35 -2 -59.5 -16t-35.5 -35t-15 -38t-4 -33q0 -55 28 -82q40 -37 130 -44q29 -3 64 -2.5t60.5 2t46 3.5t21.5 2q13 0 18 -14z" />
    <glyph glyph-name="Egrave" unicode="&#xc8;" horiz-adv-x="860" 
d="M794 340v-114l8 -209q0 -7 -5 -12t-12 -5h-707q-11 0 -19.5 8.5t-7.5 19.5q7 172 11 618q1 59 7 190.5t5 230.5t-14 190q-2 12 6 21.5t20 9.5h692q14 0 17 -13q1 -1 -4 -51q-2 -21 -6 -184q0 -18 2 -49.5t5 -54.5l2 -22q0 -7 -5 -12t-12 -5q-186 9 -290 -6
q-93 -14 -98 -69q-2 -22 12.5 -38t36.5 -24q11 -3 64 -4.5t106 -1t110.5 1t58.5 0.5q7 0 12 -5t5 -12v-170q0 -15 -0.5 -38t-0.5 -36q0 -16 -16 -16q-48 0 -121.5 4.5t-96.5 3.5q-5 0 -28.5 -0.5t-36 -1.5t-31.5 -5t-31.5 -12.5t-19.5 -22.5q-19 -36 4 -63t62 -36
q44 -5 77 -3.5t108.5 7t112.5 6.5q18 0 18 -16z" />
    <glyph glyph-name="Eacute" unicode="&#xc9;" horiz-adv-x="860" 
d="M794 340v-114l8 -209q0 -7 -5 -12t-12 -5h-707q-11 0 -19.5 8.5t-7.5 19.5q7 172 11 618q1 59 7 190.5t5 230.5t-14 190q-2 12 6 21.5t20 9.5h692q14 0 17 -13q1 -1 -4 -51q-2 -21 -6 -184q0 -18 2 -49.5t5 -54.5l2 -22q0 -7 -5 -12t-12 -5q-186 9 -290 -6
q-93 -14 -98 -69q-2 -22 12.5 -38t36.5 -24q11 -3 64 -4.5t106 -1t110.5 1t58.5 0.5q7 0 12 -5t5 -12v-170q0 -15 -0.5 -38t-0.5 -36q0 -16 -16 -16q-48 0 -121.5 4.5t-96.5 3.5q-5 0 -28.5 -0.5t-36 -1.5t-31.5 -5t-31.5 -12.5t-19.5 -22.5q-19 -36 4 -63t62 -36
q44 -5 77 -3.5t108.5 7t112.5 6.5q18 0 18 -16z" />
    <glyph glyph-name="Ecircumflex" unicode="&#xca;" horiz-adv-x="860" 
d="M794 340v-114l8 -209q0 -7 -5 -12t-12 -5h-707q-11 0 -19.5 8.5t-7.5 19.5q7 172 11 618q1 59 7 190.5t5 230.5t-14 190q-2 12 6 21.5t20 9.5h692q14 0 17 -13q1 -1 -4 -51q-2 -21 -6 -184q0 -18 2 -49.5t5 -54.5l2 -22q0 -7 -5 -12t-12 -5q-186 9 -290 -6
q-93 -14 -98 -69q-2 -22 12.5 -38t36.5 -24q11 -3 64 -4.5t106 -1t110.5 1t58.5 0.5q7 0 12 -5t5 -12v-170q0 -15 -0.5 -38t-0.5 -36q0 -16 -16 -16q-48 0 -121.5 4.5t-96.5 3.5q-5 0 -28.5 -0.5t-36 -1.5t-31.5 -5t-31.5 -12.5t-19.5 -22.5q-19 -36 4 -63t62 -36
q44 -5 77 -3.5t108.5 7t112.5 6.5q18 0 18 -16z" />
    <glyph glyph-name="Edieresis" unicode="&#xcb;" horiz-adv-x="860" 
d="M794 340v-114l8 -209q0 -7 -5 -12t-12 -5h-707q-11 0 -19.5 8.5t-7.5 19.5q7 172 11 618q1 59 7 190.5t5 230.5t-14 190q-2 12 6 21.5t20 9.5h692q14 0 17 -13q1 -1 -4 -51q-2 -21 -6 -184q0 -18 2 -49.5t5 -54.5l2 -22q0 -7 -5 -12t-12 -5q-186 9 -290 -6
q-93 -14 -98 -69q-2 -22 12.5 -38t36.5 -24q11 -3 64 -4.5t106 -1t110.5 1t58.5 0.5q7 0 12 -5t5 -12v-170q0 -15 -0.5 -38t-0.5 -36q0 -16 -16 -16q-48 0 -121.5 4.5t-96.5 3.5q-5 0 -28.5 -0.5t-36 -1.5t-31.5 -5t-31.5 -12.5t-19.5 -22.5q-19 -36 4 -63t62 -36
q44 -5 77 -3.5t108.5 7t112.5 6.5q18 0 18 -16z" />
    <glyph glyph-name="Igrave" unicode="&#xcc;" horiz-adv-x="530" 
d="M63 1288h376q10 0 17 -7t6 -17q-8 -235 -6 -510t6 -444q2 -115 15 -286q1 -10 -5.5 -17t-16.5 -7h-389q-9 0 -7 9q14 71 5 549q-9 480 -9 722z" />
    <glyph glyph-name="Iacute" unicode="&#xcd;" horiz-adv-x="530" 
d="M63 1288h376q10 0 17 -7t6 -17q-8 -235 -6 -510t6 -444q2 -115 15 -286q1 -10 -5.5 -17t-16.5 -7h-389q-9 0 -7 9q14 71 5 549q-9 480 -9 722z" />
    <glyph glyph-name="Icircumflex" unicode="&#xce;" horiz-adv-x="530" 
d="M63 1288h376q10 0 17 -7t6 -17q-8 -235 -6 -510t6 -444q2 -115 15 -286q1 -10 -5.5 -17t-16.5 -7h-389q-9 0 -7 9q14 71 5 549q-9 480 -9 722z" />
    <glyph glyph-name="Idieresis" unicode="&#xcf;" horiz-adv-x="530" 
d="M63 1288h376q10 0 17 -7t6 -17q-8 -235 -6 -510t6 -444q2 -115 15 -286q1 -10 -5.5 -17t-16.5 -7h-389q-9 0 -7 9q14 71 5 549q-9 480 -9 722z" />
    <glyph glyph-name="Eth" unicode="&#xd0;" horiz-adv-x="860" 
d="M803 377q0 -74 -36 -153.5t-106 -131.5q-42 -32 -95 -53t-84 -26.5t-54 -7.5q-21 -1 -98 -2.5t-83 -1.5l-167 -1q-7 0 -12 6t-4 14q4 33 5 212.5t-2 258.5q-1 40 -4 113.5t-5 133.5t-3 113v354l3 66q0 7 5 12t12 5h261v0h-1h-1h-1h-1h-1h-1h-1h-2h-1h-1h-1h-2h-1h-1h-1
h-1h-1h-1h-1h-1h-1h-1h-1h-1h-1h-1h-1h-1h-1v0h-1v0h-1v0v0h-1v0v0v0v0h1v0v0v0h1v0h1v0h1v0h1v0h1v0h1h1h1h1v0h1h1h1h1h1h1h1h1h1h1h1h1h1h1h1h1h1h1h1h1h1h1h1h1h1h1h1h1h1h1h1h1h1h1h1h1h1h1h1h1h1h1h1h1h1h1h1h1h1h1h1h1h1h1h1h1h1h10q117 0 170.5 -16t134.5 -87
q40 -35 66 -81t36 -96.5t13 -86t4 -78.5v-15v-119v-213v-119zM478 523q6 32 6 105.5t-5 113.5q-14 114 -66 114q-19 0 -27 -16t-8 -63v-252q0 -25 0.5 -37t3.5 -27.5t10.5 -22t20.5 -6.5q29 0 42 19t23 72z" />
    <glyph glyph-name="Ntilde" unicode="&#xd1;" horiz-adv-x="866" 
d="M797 1288q10 0 10 -13q0 -197 -1 -296q0 -12 -10 -12q-162 -1 -360 6q-188 6 -358 19q-9 0 -9 12q-2 143 -10 266v4q0 14 9 14h729zM519 868q12 -1 139 0t137 1t10 -13q-1 -42 -1 -128t-1 -128q-2 -232 -2 -346q0 -33 -3 -115.5t-2 -126.5q0 -12 -10 -12h-293q-5 0 -8 5
q-72 126 -106 191q-14 25 -34 18q-13 -4 -11 -41q1 -27 1 -80.5t1 -80.5q0 -12 -9 -12h-262q-10 0 -10 12q1 239 10 573q1 51 1 293q0 13 9 13q55 -2 84.5 -4.5t36 -3.5t35.5 -2t91 -2q32 0 39 -17q19 -45 57 -120t50 -100q5 -11 12 -15t13.5 1.5t11.5 18.5q8 21 10 77
q2 66 -6 129q-1 6 2.5 11t7.5 4z" />
    <glyph glyph-name="Ograve" unicode="&#xd2;" 
d="M807 961v-563q0 -99 -47 -207q-35 -78 -97 -126q-30 -23 -48 -34t-50 -21t-69 -10h-180q-52 4 -101 33.5t-82 69.5q-27 33 -52 101.5t-25 114.5q0 28 -0.5 311t-0.5 337q0 137 61 216q42 54 79 75t97 31h20q19 0 49 -0.5t63.5 -0.5h66h52.5q110 0 179 -82
q38 -44 61.5 -112t23.5 -133zM357 524q0 -131 75 -131q62 0 62 97q0 33 2.5 148t0.5 158q-3 57 -15 84.5t-50 27.5q-76 0 -76 -105q0 -12 0.5 -115t0.5 -164z" />
    <glyph glyph-name="Oacute" unicode="&#xd3;" 
d="M807 961v-563q0 -99 -47 -207q-35 -78 -97 -126q-30 -23 -48 -34t-50 -21t-69 -10h-180q-52 4 -101 33.5t-82 69.5q-27 33 -52 101.5t-25 114.5q0 28 -0.5 311t-0.5 337q0 137 61 216q42 54 79 75t97 31h20q19 0 49 -0.5t63.5 -0.5h66h52.5q110 0 179 -82
q38 -44 61.5 -112t23.5 -133zM357 524q0 -131 75 -131q62 0 62 97q0 33 2.5 148t0.5 158q-3 57 -15 84.5t-50 27.5q-76 0 -76 -105q0 -12 0.5 -115t0.5 -164z" />
    <glyph glyph-name="Ocircumflex" unicode="&#xd4;" 
d="M807 961v-563q0 -99 -47 -207q-35 -78 -97 -126q-30 -23 -48 -34t-50 -21t-69 -10h-180q-52 4 -101 33.5t-82 69.5q-27 33 -52 101.5t-25 114.5q0 28 -0.5 311t-0.5 337q0 137 61 216q42 54 79 75t97 31h20q19 0 49 -0.5t63.5 -0.5h66h52.5q110 0 179 -82
q38 -44 61.5 -112t23.5 -133zM357 524q0 -131 75 -131q62 0 62 97q0 33 2.5 148t0.5 158q-3 57 -15 84.5t-50 27.5q-76 0 -76 -105q0 -12 0.5 -115t0.5 -164z" />
    <glyph glyph-name="Otilde" unicode="&#xd5;" 
d="M807 961v-563q0 -99 -47 -207q-35 -78 -97 -126q-30 -23 -48 -34t-50 -21t-69 -10h-180q-52 4 -101 33.5t-82 69.5q-27 33 -52 101.5t-25 114.5q0 28 -0.5 311t-0.5 337q0 137 61 216q42 54 79 75t97 31h20q19 0 49 -0.5t63.5 -0.5h66h52.5q110 0 179 -82
q38 -44 61.5 -112t23.5 -133zM357 524q0 -131 75 -131q62 0 62 97q0 33 2.5 148t0.5 158q-3 57 -15 84.5t-50 27.5q-76 0 -76 -105q0 -12 0.5 -115t0.5 -164z" />
    <glyph glyph-name="Odieresis" unicode="&#xd6;" 
d="M807 961v-563q0 -99 -47 -207q-35 -78 -97 -126q-30 -23 -48 -34t-50 -21t-69 -10h-180q-52 4 -101 33.5t-82 69.5q-27 33 -52 101.5t-25 114.5q0 28 -0.5 311t-0.5 337q0 137 61 216q42 54 79 75t97 31h20q19 0 49 -0.5t63.5 -0.5h66h52.5q110 0 179 -82
q38 -44 61.5 -112t23.5 -133zM357 524q0 -131 75 -131q62 0 62 97q0 33 2.5 148t0.5 158q-3 57 -15 84.5t-50 27.5q-76 0 -76 -105q0 -12 0.5 -115t0.5 -164z" />
    <glyph glyph-name="Oslash" unicode="&#xd8;" 
d="M807 961v-563q0 -99 -47 -207q-35 -78 -97 -126q-30 -23 -48 -34t-50 -21t-69 -10h-180q-52 4 -101 33.5t-82 69.5q-27 33 -52 101.5t-25 114.5q0 28 -0.5 311t-0.5 337q0 137 61 216q42 54 79 75t97 31h20q19 0 49 -0.5t63.5 -0.5h66h52.5q110 0 179 -82
q38 -44 61.5 -112t23.5 -133zM357 524q0 -131 75 -131q62 0 62 97q0 33 2.5 148t0.5 158q-3 57 -15 84.5t-50 27.5q-76 0 -76 -105q0 -12 0.5 -115t0.5 -164z" />
    <glyph glyph-name="Ugrave" unicode="&#xd9;" horiz-adv-x="868" 
d="M633 38q-90 -38 -159 -38h-96q-80 0 -149.5 29.5t-109.5 91.5q-64 97 -64 334v172v647q0 14 10 14h285q10 0 10 -14v-226q0 -379 1 -393q3 -40 5 -59.5t8.5 -46t17.5 -37.5q20 -16 37 -12.5t25 14.5q10 14 15 34t5.5 39.5t1 42t0.5 42.5q1 28 1.5 206t1.5 220
q2 117 0 176q0 14 9 14h309q10 0 10 -14v-779q0 -63 -1 -93.5t-5.5 -88.5t-17.5 -100t-35 -72q-33 -46 -55 -66t-60 -37z" />
    <glyph glyph-name="Uacute" unicode="&#xda;" horiz-adv-x="868" 
d="M633 38q-90 -38 -159 -38h-96q-80 0 -149.5 29.5t-109.5 91.5q-64 97 -64 334v172v647q0 14 10 14h285q10 0 10 -14v-226q0 -379 1 -393q3 -40 5 -59.5t8.5 -46t17.5 -37.5q20 -16 37 -12.5t25 14.5q10 14 15 34t5.5 39.5t1 42t0.5 42.5q1 28 1.5 206t1.5 220
q2 117 0 176q0 14 9 14h309q10 0 10 -14v-779q0 -63 -1 -93.5t-5.5 -88.5t-17.5 -100t-35 -72q-33 -46 -55 -66t-60 -37z" />
    <glyph glyph-name="Ucircumflex" unicode="&#xdb;" horiz-adv-x="868" 
d="M633 38q-90 -38 -159 -38h-96q-80 0 -149.5 29.5t-109.5 91.5q-64 97 -64 334v172v647q0 14 10 14h285q10 0 10 -14v-226q0 -379 1 -393q3 -40 5 -59.5t8.5 -46t17.5 -37.5q20 -16 37 -12.5t25 14.5q10 14 15 34t5.5 39.5t1 42t0.5 42.5q1 28 1.5 206t1.5 220
q2 117 0 176q0 14 9 14h309q10 0 10 -14v-779q0 -63 -1 -93.5t-5.5 -88.5t-17.5 -100t-35 -72q-33 -46 -55 -66t-60 -37z" />
    <glyph glyph-name="Udieresis" unicode="&#xdc;" horiz-adv-x="868" 
d="M633 38q-90 -38 -159 -38h-96q-80 0 -149.5 29.5t-109.5 91.5q-64 97 -64 334v172v647q0 14 10 14h285q10 0 10 -14v-226q0 -379 1 -393q3 -40 5 -59.5t8.5 -46t17.5 -37.5q20 -16 37 -12.5t25 14.5q10 14 15 34t5.5 39.5t1 42t0.5 42.5q1 28 1.5 206t1.5 220
q2 117 0 176q0 14 9 14h309q10 0 10 -14v-779q0 -63 -1 -93.5t-5.5 -88.5t-17.5 -100t-35 -72q-33 -46 -55 -66t-60 -37z" />
    <glyph glyph-name="Yacute" unicode="&#xdd;" horiz-adv-x="884" 
d="M498 1288h339q2 0 3.5 -3.5t0.5 -7.5q-2 -7 -19 -86t-41.5 -185.5t-44.5 -174.5q-97 -331 -101 -355q-7 -50 -7 -112q0 -52 -4 -156q-4 -133 -1 -200q0 -8 -4 -8h-386q-5 0 -5 8q0 4 3 193.5t3 216.5q0 18 -1 29.5t-2 17t-5 20t-7 25.5q-1 5 -8.5 39t-21.5 94.5
t-31 125.5q-18 68 -39 158t-35.5 156t-27.5 126.5t-15 67.5q-2 11 5 11h334q5 0 5 -7q9 -190 25 -320q1 -12 7.5 -20t14.5 -8q18 0 23 28q10 45 24.5 182t14.5 139q2 6 4 6z" />
    <glyph glyph-name="agrave" unicode="&#xe0;" horiz-adv-x="1017" 
d="M946 112q13 -55 30 -112h-413q0 1 -1 22.5t-2 32.5q-11 125 -26 192q-2 10 -4 27t-4 23t-7.5 14.5t-17 11t-31.5 3.5q-34 1 -44 -24t-16 -97q-13 -150 -14 -205h-355q15 67 30 148.5t23.5 135t23.5 156t21 141.5q14 95 56.5 295t57.5 308q8 56 11 104h453
q22 -223 94 -566q94 -446 135 -610zM457 884q-3 -20 -8 -59q-19 -143 -11 -183q9 -45 49 -47h3q3 -1 8.5 4.5t7.5 6.5q15 4 16 56t-4 90q-6 115 -32 146q-7 8 -17.5 4t-11.5 -18z" />
    <glyph glyph-name="aacute" unicode="&#xe1;" horiz-adv-x="1017" 
d="M946 112q13 -55 30 -112h-413q0 1 -1 22.5t-2 32.5q-11 125 -26 192q-2 10 -4 27t-4 23t-7.5 14.5t-17 11t-31.5 3.5q-34 1 -44 -24t-16 -97q-13 -150 -14 -205h-355q15 67 30 148.5t23.5 135t23.5 156t21 141.5q14 95 56.5 295t57.5 308q8 56 11 104h453
q22 -223 94 -566q94 -446 135 -610zM457 884q-3 -20 -8 -59q-19 -143 -11 -183q9 -45 49 -47h3q3 -1 8.5 4.5t7.5 6.5q15 4 16 56t-4 90q-6 115 -32 146q-7 8 -17.5 4t-11.5 -18z" />
    <glyph glyph-name="acircumflex" unicode="&#xe2;" horiz-adv-x="1017" 
d="M946 112q13 -55 30 -112h-413q0 1 -1 22.5t-2 32.5q-11 125 -26 192q-2 10 -4 27t-4 23t-7.5 14.5t-17 11t-31.5 3.5q-34 1 -44 -24t-16 -97q-13 -150 -14 -205h-355q15 67 30 148.5t23.5 135t23.5 156t21 141.5q14 95 56.5 295t57.5 308q8 56 11 104h453
q22 -223 94 -566q94 -446 135 -610zM457 884q-3 -20 -8 -59q-19 -143 -11 -183q9 -45 49 -47h3q3 -1 8.5 4.5t7.5 6.5q15 4 16 56t-4 90q-6 115 -32 146q-7 8 -17.5 4t-11.5 -18z" />
    <glyph glyph-name="atilde" unicode="&#xe3;" horiz-adv-x="1017" 
d="M946 112q13 -55 30 -112h-413q0 1 -1 22.5t-2 32.5q-11 125 -26 192q-2 10 -4 27t-4 23t-7.5 14.5t-17 11t-31.5 3.5q-34 1 -44 -24t-16 -97q-13 -150 -14 -205h-355q15 67 30 148.5t23.5 135t23.5 156t21 141.5q14 95 56.5 295t57.5 308q8 56 11 104h453
q22 -223 94 -566q94 -446 135 -610zM457 884q-3 -20 -8 -59q-19 -143 -11 -183q9 -45 49 -47h3q3 -1 8.5 4.5t7.5 6.5q15 4 16 56t-4 90q-6 115 -32 146q-7 8 -17.5 4t-11.5 -18z" />
    <glyph glyph-name="adieresis" unicode="&#xe4;" horiz-adv-x="1017" 
d="M946 112q13 -55 30 -112h-413q0 1 -1 22.5t-2 32.5q-11 125 -26 192q-2 10 -4 27t-4 23t-7.5 14.5t-17 11t-31.5 3.5q-34 1 -44 -24t-16 -97q-13 -150 -14 -205h-355q15 67 30 148.5t23.5 135t23.5 156t21 141.5q14 95 56.5 295t57.5 308q8 56 11 104h453
q22 -223 94 -566q94 -446 135 -610zM457 884q-3 -20 -8 -59q-19 -143 -11 -183q9 -45 49 -47h3q3 -1 8.5 4.5t7.5 6.5q15 4 16 56t-4 90q-6 115 -32 146q-7 8 -17.5 4t-11.5 -18z" />
    <glyph glyph-name="aring" unicode="&#xe5;" horiz-adv-x="1017" 
d="M946 112q13 -55 30 -112h-413q0 1 -1 22.5t-2 32.5q-11 125 -26 192q-2 10 -4 27t-4 23t-7.5 14.5t-17 11t-31.5 3.5q-34 1 -44 -24t-16 -97q-13 -150 -14 -205h-355q15 67 30 148.5t23.5 135t23.5 156t21 141.5q14 95 56.5 295t57.5 308q8 56 11 104h453
q22 -223 94 -566q94 -446 135 -610zM457 884q-3 -20 -8 -59q-19 -143 -11 -183q9 -45 49 -47h3q3 -1 8.5 4.5t7.5 6.5q15 4 16 56t-4 90q-6 115 -32 146q-7 8 -17.5 4t-11.5 -18z" />
    <glyph glyph-name="ccedilla" unicode="&#xe7;" horiz-adv-x="874" 
d="M801 507q0 -11 -1.5 -68.5t-2.5 -101.5t0 -101.5t5 -92.5v-124q0 -19 -19 -19v0h1v0h1h1h1h1h1h1h1h1h1h1h1h1h1h1h1h1h1h1h1h1h1h1h1h1h1h1h1h1h1h1h1h1h1h1h1h1h1h1h1v0h1h1v0h1v0h1v0h1v0h1v0v0h1v0v0v0h1v0v0v0v0v0v0v0v0v0v0v0h-1v0v0v0h-1v0v0h-1v0v0h-1v0h-1v0h-1
v0h-1v0h-1v0h-1v0h-1v0h-1v0h-1h-1v0h-1h-1h-1v0h-1h-1h-1h-1h-1h-1h-1h-1h-1h-1h-1h-1h-1h-1h-1h-1h-1h-1h-1h-1h-1h-1h-1h-1h-1h-1h-1h-1h-1h-1h-1h-1h-1h-1h-1h-1h-1h-1h-1h-1h-1h-1h-1h-1h-1h-1h-1h-1h-1h-1h-1h-1h-1h-1h-1h-1h-1h-1h-1h-1h-1h-1h-1h-1h-1h-1h-1h-1h-1
h-1h-1h-1h-1h-1h-1h-1h-1h-1h-1h-1h-1h-1h-1h-1h-1h-1h-1h-1h-1h-1h-1h-1h-1h-1h-1h-1h-1h-1h-1h-1h-1h-1h-1h-1h-1h-1h-1h-1h-1h-1h-1h-1h-1h-1h-1h-1h-1h-1h-1h-1h-1h-1h-1h-1h-9q-92 0 -161 8t-117 26t-66.5 27.5t-52.5 30.5q-107 67 -150 136q-50 78 -67 145t-17 144
v246v-19v-3v-2v-2v-1v-2v-1v-1v-1v-1v-1v-1v-1v-1v0v-1v0v0v0v0v0v1v0v1v0v1v0v1v1v1v1v1v1v1v1v1v1v1v1v1v1v1v1v1v1v1v1v1v1v1v1v1v1v1v1v1v9q0 132 39 247q26 77 125 172q107 103 391 103h5h6h5h6h5h6h6h6h6h6h6h6h6h7h7h7h7h8h8h8h10h12h16h-2q8 0 20.5 -11.5
t12.5 -19.5v-105q0 -6 -1 -16.5t-2 -15.5q-2 -35 -1.5 -108t2.5 -146l2 -74q0 -8 -6 -14t-13 -5q-32 2 -236 -9q-35 -2 -59.5 -16t-35.5 -35t-15 -38t-4 -33q0 -55 28 -82q40 -37 130 -44q29 -3 64 -2.5t60.5 2t46 3.5t21.5 2q13 0 18 -14z" />
    <glyph glyph-name="egrave" unicode="&#xe8;" horiz-adv-x="860" 
d="M794 340v-114l8 -209q0 -7 -5 -12t-12 -5h-707q-11 0 -19.5 8.5t-7.5 19.5q7 172 11 618q1 59 7 190.5t5 230.5t-14 190q-2 12 6 21.5t20 9.5h692q14 0 17 -13q1 -1 -4 -51q-2 -21 -6 -184q0 -18 2 -49.5t5 -54.5l2 -22q0 -7 -5 -12t-12 -5q-186 9 -290 -6
q-93 -14 -98 -69q-2 -22 12.5 -38t36.5 -24q11 -3 64 -4.5t106 -1t110.5 1t58.5 0.5q7 0 12 -5t5 -12v-170q0 -15 -0.5 -38t-0.5 -36q0 -16 -16 -16q-48 0 -121.5 4.5t-96.5 3.5q-5 0 -28.5 -0.5t-36 -1.5t-31.5 -5t-31.5 -12.5t-19.5 -22.5q-19 -36 4 -63t62 -36
q44 -5 77 -3.5t108.5 7t112.5 6.5q18 0 18 -16z" />
    <glyph glyph-name="eacute" unicode="&#xe9;" horiz-adv-x="860" 
d="M794 340v-114l8 -209q0 -7 -5 -12t-12 -5h-707q-11 0 -19.5 8.5t-7.5 19.5q7 172 11 618q1 59 7 190.5t5 230.5t-14 190q-2 12 6 21.5t20 9.5h692q14 0 17 -13q1 -1 -4 -51q-2 -21 -6 -184q0 -18 2 -49.5t5 -54.5l2 -22q0 -7 -5 -12t-12 -5q-186 9 -290 -6
q-93 -14 -98 -69q-2 -22 12.5 -38t36.5 -24q11 -3 64 -4.5t106 -1t110.5 1t58.5 0.5q7 0 12 -5t5 -12v-170q0 -15 -0.5 -38t-0.5 -36q0 -16 -16 -16q-48 0 -121.5 4.5t-96.5 3.5q-5 0 -28.5 -0.5t-36 -1.5t-31.5 -5t-31.5 -12.5t-19.5 -22.5q-19 -36 4 -63t62 -36
q44 -5 77 -3.5t108.5 7t112.5 6.5q18 0 18 -16z" />
    <glyph glyph-name="ecircumflex" unicode="&#xea;" horiz-adv-x="860" 
d="M794 340v-114l8 -209q0 -7 -5 -12t-12 -5h-707q-11 0 -19.5 8.5t-7.5 19.5q7 172 11 618q1 59 7 190.5t5 230.5t-14 190q-2 12 6 21.5t20 9.5h692q14 0 17 -13q1 -1 -4 -51q-2 -21 -6 -184q0 -18 2 -49.5t5 -54.5l2 -22q0 -7 -5 -12t-12 -5q-186 9 -290 -6
q-93 -14 -98 -69q-2 -22 12.5 -38t36.5 -24q11 -3 64 -4.5t106 -1t110.5 1t58.5 0.5q7 0 12 -5t5 -12v-170q0 -15 -0.5 -38t-0.5 -36q0 -16 -16 -16q-48 0 -121.5 4.5t-96.5 3.5q-5 0 -28.5 -0.5t-36 -1.5t-31.5 -5t-31.5 -12.5t-19.5 -22.5q-19 -36 4 -63t62 -36
q44 -5 77 -3.5t108.5 7t112.5 6.5q18 0 18 -16z" />
    <glyph glyph-name="edieresis" unicode="&#xeb;" horiz-adv-x="860" 
d="M794 340v-114l8 -209q0 -7 -5 -12t-12 -5h-707q-11 0 -19.5 8.5t-7.5 19.5q7 172 11 618q1 59 7 190.5t5 230.5t-14 190q-2 12 6 21.5t20 9.5h692q14 0 17 -13q1 -1 -4 -51q-2 -21 -6 -184q0 -18 2 -49.5t5 -54.5l2 -22q0 -7 -5 -12t-12 -5q-186 9 -290 -6
q-93 -14 -98 -69q-2 -22 12.5 -38t36.5 -24q11 -3 64 -4.5t106 -1t110.5 1t58.5 0.5q7 0 12 -5t5 -12v-170q0 -15 -0.5 -38t-0.5 -36q0 -16 -16 -16q-48 0 -121.5 4.5t-96.5 3.5q-5 0 -28.5 -0.5t-36 -1.5t-31.5 -5t-31.5 -12.5t-19.5 -22.5q-19 -36 4 -63t62 -36
q44 -5 77 -3.5t108.5 7t112.5 6.5q18 0 18 -16z" />
    <glyph glyph-name="igrave" unicode="&#xec;" horiz-adv-x="530" 
d="M63 1288h376q10 0 17 -7t6 -17q-8 -235 -6 -510t6 -444q2 -115 15 -286q1 -10 -5.5 -17t-16.5 -7h-389q-9 0 -7 9q14 71 5 549q-9 480 -9 722z" />
    <glyph glyph-name="iacute" unicode="&#xed;" horiz-adv-x="530" 
d="M63 1288h376q10 0 17 -7t6 -17q-8 -235 -6 -510t6 -444q2 -115 15 -286q1 -10 -5.5 -17t-16.5 -7h-389q-9 0 -7 9q14 71 5 549q-9 480 -9 722z" />
    <glyph glyph-name="icircumflex" unicode="&#xee;" horiz-adv-x="530" 
d="M63 1288h376q10 0 17 -7t6 -17q-8 -235 -6 -510t6 -444q2 -115 15 -286q1 -10 -5.5 -17t-16.5 -7h-389q-9 0 -7 9q14 71 5 549q-9 480 -9 722z" />
    <glyph glyph-name="idieresis" unicode="&#xef;" horiz-adv-x="530" 
d="M63 1288h376q10 0 17 -7t6 -17q-8 -235 -6 -510t6 -444q2 -115 15 -286q1 -10 -5.5 -17t-16.5 -7h-389q-9 0 -7 9q14 71 5 549q-9 480 -9 722z" />
    <glyph glyph-name="eth" unicode="&#xf0;" horiz-adv-x="860" 
d="M803 377q0 -74 -36 -153.5t-106 -131.5q-42 -32 -95 -53t-84 -26.5t-54 -7.5q-21 -1 -98 -2.5t-83 -1.5l-167 -1q-7 0 -12 6t-4 14q4 33 5 212.5t-2 258.5q-1 40 -4 113.5t-5 133.5t-3 113v354l3 66q0 7 5 12t12 5h261v0h-1h-1h-1h-1h-1h-1h-1h-2h-1h-1h-1h-2h-1h-1h-1
h-1h-1h-1h-1h-1h-1h-1h-1h-1h-1h-1h-1h-1h-1v0h-1v0h-1v0v0h-1v0v0v0v0h1v0v0v0h1v0h1v0h1v0h1v0h1v0h1h1h1h1v0h1h1h1h1h1h1h1h1h1h1h1h1h1h1h1h1h1h1h1h1h1h1h1h1h1h1h1h1h1h1h1h1h1h1h1h1h1h1h1h1h1h1h1h1h1h1h1h1h1h1h1h1h1h1h1h1h1h10q117 0 170.5 -16t134.5 -87
q40 -35 66 -81t36 -96.5t13 -86t4 -78.5v-15v-119v-213v-119zM478 523q6 32 6 105.5t-5 113.5q-14 114 -66 114q-19 0 -27 -16t-8 -63v-252q0 -25 0.5 -37t3.5 -27.5t10.5 -22t20.5 -6.5q29 0 42 19t23 72z" />
    <glyph glyph-name="ntilde" unicode="&#xf1;" horiz-adv-x="866" 
d="M797 1288q10 0 10 -13q0 -197 -1 -296q0 -12 -10 -12q-162 -1 -360 6q-188 6 -358 19q-9 0 -9 12q-2 143 -10 266v4q0 14 9 14h729zM519 868q12 -1 139 0t137 1t10 -13q-1 -42 -1 -128t-1 -128q-2 -232 -2 -346q0 -33 -3 -115.5t-2 -126.5q0 -12 -10 -12h-293q-5 0 -8 5
q-72 126 -106 191q-14 25 -34 18q-13 -4 -11 -41q1 -27 1 -80.5t1 -80.5q0 -12 -9 -12h-262q-10 0 -10 12q1 239 10 573q1 51 1 293q0 13 9 13q55 -2 84.5 -4.5t36 -3.5t35.5 -2t91 -2q32 0 39 -17q19 -45 57 -120t50 -100q5 -11 12 -15t13.5 1.5t11.5 18.5q8 21 10 77
q2 66 -6 129q-1 6 2.5 11t7.5 4z" />
    <glyph glyph-name="ograve" unicode="&#xf2;" 
d="M807 961v-563q0 -99 -47 -207q-35 -78 -97 -126q-30 -23 -48 -34t-50 -21t-69 -10h-180q-52 4 -101 33.5t-82 69.5q-27 33 -52 101.5t-25 114.5q0 28 -0.5 311t-0.5 337q0 137 61 216q42 54 79 75t97 31h20q19 0 49 -0.5t63.5 -0.5h66h52.5q110 0 179 -82
q38 -44 61.5 -112t23.5 -133zM357 524q0 -131 75 -131q62 0 62 97q0 33 2.5 148t0.5 158q-3 57 -15 84.5t-50 27.5q-76 0 -76 -105q0 -12 0.5 -115t0.5 -164z" />
    <glyph glyph-name="oacute" unicode="&#xf3;" 
d="M807 961v-563q0 -99 -47 -207q-35 -78 -97 -126q-30 -23 -48 -34t-50 -21t-69 -10h-180q-52 4 -101 33.5t-82 69.5q-27 33 -52 101.5t-25 114.5q0 28 -0.5 311t-0.5 337q0 137 61 216q42 54 79 75t97 31h20q19 0 49 -0.5t63.5 -0.5h66h52.5q110 0 179 -82
q38 -44 61.5 -112t23.5 -133zM357 524q0 -131 75 -131q62 0 62 97q0 33 2.5 148t0.5 158q-3 57 -15 84.5t-50 27.5q-76 0 -76 -105q0 -12 0.5 -115t0.5 -164z" />
    <glyph glyph-name="ocircumflex" unicode="&#xf4;" 
d="M807 961v-563q0 -99 -47 -207q-35 -78 -97 -126q-30 -23 -48 -34t-50 -21t-69 -10h-180q-52 4 -101 33.5t-82 69.5q-27 33 -52 101.5t-25 114.5q0 28 -0.5 311t-0.5 337q0 137 61 216q42 54 79 75t97 31h20q19 0 49 -0.5t63.5 -0.5h66h52.5q110 0 179 -82
q38 -44 61.5 -112t23.5 -133zM357 524q0 -131 75 -131q62 0 62 97q0 33 2.5 148t0.5 158q-3 57 -15 84.5t-50 27.5q-76 0 -76 -105q0 -12 0.5 -115t0.5 -164z" />
    <glyph glyph-name="otilde" unicode="&#xf5;" 
d="M807 961v-563q0 -99 -47 -207q-35 -78 -97 -126q-30 -23 -48 -34t-50 -21t-69 -10h-180q-52 4 -101 33.5t-82 69.5q-27 33 -52 101.5t-25 114.5q0 28 -0.5 311t-0.5 337q0 137 61 216q42 54 79 75t97 31h20q19 0 49 -0.5t63.5 -0.5h66h52.5q110 0 179 -82
q38 -44 61.5 -112t23.5 -133zM357 524q0 -131 75 -131q62 0 62 97q0 33 2.5 148t0.5 158q-3 57 -15 84.5t-50 27.5q-76 0 -76 -105q0 -12 0.5 -115t0.5 -164z" />
    <glyph glyph-name="odieresis" unicode="&#xf6;" 
d="M807 961v-563q0 -99 -47 -207q-35 -78 -97 -126q-30 -23 -48 -34t-50 -21t-69 -10h-180q-52 4 -101 33.5t-82 69.5q-27 33 -52 101.5t-25 114.5q0 28 -0.5 311t-0.5 337q0 137 61 216q42 54 79 75t97 31h20q19 0 49 -0.5t63.5 -0.5h66h52.5q110 0 179 -82
q38 -44 61.5 -112t23.5 -133zM357 524q0 -131 75 -131q62 0 62 97q0 33 2.5 148t0.5 158q-3 57 -15 84.5t-50 27.5q-76 0 -76 -105q0 -12 0.5 -115t0.5 -164z" />
    <glyph glyph-name="oslash" unicode="&#xf8;" 
d="M807 961v-563q0 -99 -47 -207q-35 -78 -97 -126q-30 -23 -48 -34t-50 -21t-69 -10h-180q-52 4 -101 33.5t-82 69.5q-27 33 -52 101.5t-25 114.5q0 28 -0.5 311t-0.5 337q0 137 61 216q42 54 79 75t97 31h20q19 0 49 -0.5t63.5 -0.5h66h52.5q110 0 179 -82
q38 -44 61.5 -112t23.5 -133zM357 524q0 -131 75 -131q62 0 62 97q0 33 2.5 148t0.5 158q-3 57 -15 84.5t-50 27.5q-76 0 -76 -105q0 -12 0.5 -115t0.5 -164z" />
    <glyph glyph-name="ugrave" unicode="&#xf9;" horiz-adv-x="868" 
d="M633 38q-90 -38 -159 -38h-96q-80 0 -149.5 29.5t-109.5 91.5q-64 97 -64 334v172v647q0 14 10 14h285q10 0 10 -14v-226q0 -379 1 -393q3 -40 5 -59.5t8.5 -46t17.5 -37.5q20 -16 37 -12.5t25 14.5q10 14 15 34t5.5 39.5t1 42t0.5 42.5q1 28 1.5 206t1.5 220
q2 117 0 176q0 14 9 14h309q10 0 10 -14v-779q0 -63 -1 -93.5t-5.5 -88.5t-17.5 -100t-35 -72q-33 -46 -55 -66t-60 -37z" />
    <glyph glyph-name="uacute" unicode="&#xfa;" horiz-adv-x="868" 
d="M633 38q-90 -38 -159 -38h-96q-80 0 -149.5 29.5t-109.5 91.5q-64 97 -64 334v172v647q0 14 10 14h285q10 0 10 -14v-226q0 -379 1 -393q3 -40 5 -59.5t8.5 -46t17.5 -37.5q20 -16 37 -12.5t25 14.5q10 14 15 34t5.5 39.5t1 42t0.5 42.5q1 28 1.5 206t1.5 220
q2 117 0 176q0 14 9 14h309q10 0 10 -14v-779q0 -63 -1 -93.5t-5.5 -88.5t-17.5 -100t-35 -72q-33 -46 -55 -66t-60 -37z" />
    <glyph glyph-name="ucircumflex" unicode="&#xfb;" horiz-adv-x="868" 
d="M633 38q-90 -38 -159 -38h-96q-80 0 -149.5 29.5t-109.5 91.5q-64 97 -64 334v172v647q0 14 10 14h285q10 0 10 -14v-226q0 -379 1 -393q3 -40 5 -59.5t8.5 -46t17.5 -37.5q20 -16 37 -12.5t25 14.5q10 14 15 34t5.5 39.5t1 42t0.5 42.5q1 28 1.5 206t1.5 220
q2 117 0 176q0 14 9 14h309q10 0 10 -14v-779q0 -63 -1 -93.5t-5.5 -88.5t-17.5 -100t-35 -72q-33 -46 -55 -66t-60 -37z" />
    <glyph glyph-name="udieresis" unicode="&#xfc;" horiz-adv-x="868" 
d="M633 38q-90 -38 -159 -38h-96q-80 0 -149.5 29.5t-109.5 91.5q-64 97 -64 334v172v647q0 14 10 14h285q10 0 10 -14v-226q0 -379 1 -393q3 -40 5 -59.5t8.5 -46t17.5 -37.5q20 -16 37 -12.5t25 14.5q10 14 15 34t5.5 39.5t1 42t0.5 42.5q1 28 1.5 206t1.5 220
q2 117 0 176q0 14 9 14h309q10 0 10 -14v-779q0 -63 -1 -93.5t-5.5 -88.5t-17.5 -100t-35 -72q-33 -46 -55 -66t-60 -37z" />
    <glyph glyph-name="yacute" unicode="&#xfd;" horiz-adv-x="884" 
d="M498 1288h339q2 0 3.5 -3.5t0.5 -7.5q-2 -7 -19 -86t-41.5 -185.5t-44.5 -174.5q-97 -331 -101 -355q-7 -50 -7 -112q0 -52 -4 -156q-4 -133 -1 -200q0 -8 -4 -8h-386q-5 0 -5 8q0 4 3 193.5t3 216.5q0 18 -1 29.5t-2 17t-5 20t-7 25.5q-1 5 -8.5 39t-21.5 94.5
t-31 125.5q-18 68 -39 158t-35.5 156t-27.5 126.5t-15 67.5q-2 11 5 11h334q5 0 5 -7q9 -190 25 -320q1 -12 7.5 -20t14.5 -8q18 0 23 28q10 45 24.5 182t14.5 139q2 6 4 6z" />
    <glyph glyph-name="ydieresis" unicode="&#xff;" horiz-adv-x="884" 
d="M498 1288h339q2 0 3.5 -3.5t0.5 -7.5q-2 -7 -19 -86t-41.5 -185.5t-44.5 -174.5q-97 -331 -101 -355q-7 -50 -7 -112q0 -52 -4 -156q-4 -133 -1 -200q0 -8 -4 -8h-386q-5 0 -5 8q0 4 3 193.5t3 216.5q0 18 -1 29.5t-2 17t-5 20t-7 25.5q-1 5 -8.5 39t-21.5 94.5
t-31 125.5q-18 68 -39 158t-35.5 156t-27.5 126.5t-15 67.5q-2 11 5 11h334q5 0 5 -7q9 -190 25 -320q1 -12 7.5 -20t14.5 -8q18 0 23 28q10 45 24.5 182t14.5 139q2 6 4 6z" />
    <glyph glyph-name="bullet" unicode="&#x2022;" horiz-adv-x="825" 
d="M696 627q2 -3 0 -6q-16 -30 -74 -97q-5 -5 -16 -18.5t-16 -19.5q-10 12 -30.5 36.5t-36.5 42.5t-33 34q-10 9 -22.5 4.5t-15.5 -15.5t6 -22q17 -16 33.5 -35t36 -43t31.5 -37q-13 -16 -24 -28q-85 -93 -116 -137q-3 -3 -6 0q-54 61 -117 137q-4 5 -12.5 15.5t-13.5 15.5
q7 6 24.5 21.5t25.5 23t22 20t24.5 24t21.5 23.5q9 10 4.5 23t-15.5 16t-22 -6q-31 -35 -114 -110q-17 21 -41 52q-40 53 -74 85q-3 3 -1 6q7 13 18 27.5t19 23.5t22.5 25t20.5 23q3 3 42 53l6 6q16 -16 50.5 -56.5t53.5 -57.5q10 -9 23 -5t16 15t-6 22q-20 19 -57.5 61
t-51.5 56q4 4 12.5 14.5t12.5 14.5q62 73 118 135q3 3 6 0q20 -22 58 -66q23 -27 72 -100q0 -1 1 -1l1 -2q-4 -5 -13 -14.5t-14 -13.5q-8 -8 -27.5 -25.5t-34 -32.5t-23.5 -29q-8 -12 -0.5 -22.5t19.5 -10.5t21 10q8 12 21.5 25.5t31 29.5t24.5 23q4 3 11 9.5t10 10.5
q63 -97 108 -153z" />
    <glyph glyph-name="uni20B1" unicode="&#x20b1;" horiz-adv-x="919" 
d="M854 1030q8 0 8 -12q0 -208 2 -270q1 -29 1 -164q0 -12 -8 -12h-58q-6 0 -7 -7q-13 -107 -35 -157t-68 -92q-31 -29 -100.5 -47.5t-105.5 -18.5q-33 0 -44.5 -16t-14.5 -61q-4 -73 -3 -137q0 -15 -6.5 -26t-16.5 -11h-256q-10 0 -16.5 10.5t-6.5 25.5q7 299 7 414v111
q0 12 -8 12h-60q-8 0 -8 14q2 12 0.5 87t-1.5 89q0 34 0.5 136t0.5 120q0 13 8 13h56q8 0 8 12q0 15 -0.5 112.5t-0.5 122.5q0 8 7 8h405q77 0 104 -19q5 -3 20 -12.5t21 -13.5t18 -13t19 -16.5t16.5 -19t16.5 -24.5q18 -31 46 -130q2 -8 7 -8h53zM501 879q-19 17 -39.5 15
t-34.5 -24q-11 -16 -16 -71q-5 -57 -3 -111q1 -20 2 -31.5t6 -33t17.5 -33t32.5 -11.5q16 0 28 7.5t17.5 15t9.5 24t4.5 21t1.5 19.5v103q0 86 -26 110z" />
    </font>
</defs>
</svg>
